<svg width="1158" height="846" viewBox="0 0 1158 846" fill="none" xmlns="http://www.w3.org/2000/svg">
<path d="M301 438.667H577.173L674.171 0L828.442 642.333L893.046 438.667H1157.93L1153.5 469L1149.62 490.889H931.105L812.841 846L674.171 153.905L636.108 490.889H301V438.667Z" fill="#F0D800"/>
<path d="M0 585.448V122H366.253C387.709 122 405.946 129.51 420.966 144.529C435.985 159.548 443.494 177.785 443.494 199.241V297.724C443.494 303.732 442.636 309.739 440.92 315.747C439.632 321.326 437.701 326.69 435.126 331.839C444.567 346 451.648 358.23 456.368 368.529C461.088 378.828 463.448 389.341 463.448 400.069V508.207C463.448 529.663 455.939 547.9 440.92 562.92C425.9 577.939 407.663 585.448 386.207 585.448H0ZM77.2414 533.31H386.207C393.073 533.31 398.866 530.95 403.586 526.23C408.736 521.08 411.31 515.073 411.31 508.207V400.069C411.31 393.203 408.736 387.41 403.586 382.69C398.866 377.54 393.073 374.966 386.207 374.966H77.2414C70.3755 374.966 64.3678 377.54 59.2184 382.69C54.4981 387.41 52.1379 393.203 52.1379 400.069V508.207C52.1379 515.073 54.4981 521.08 59.2184 526.23C64.3678 530.95 70.3755 533.31 77.2414 533.31ZM77.2414 322.828H366.253C373.119 322.828 378.912 320.467 383.632 315.747C388.352 310.598 390.713 304.59 390.713 297.724V199.241C390.713 192.375 388.352 186.582 383.632 181.862C378.912 176.713 373.119 174.138 366.253 174.138H77.2414C70.3755 174.138 64.3678 176.713 59.2184 181.862C54.4981 186.582 52.1379 192.375 52.1379 199.241V297.724C52.1379 304.59 54.4981 310.598 59.2184 315.747C64.3678 320.467 70.3755 322.828 77.2414 322.828Z" fill="black"/>
</svg>
