<svg width="916" height="99" viewBox="0 0 916 99" fill="none" xmlns="http://www.w3.org/2000/svg">
<mask id="path-1-outside-1_1_2" maskUnits="userSpaceOnUse" x="-2" y="-1" width="918" height="101" fill="black">
<rect fill="white" x="-2" y="-1" width="918" height="101"/>
<path d="M0 97L11.6364 27.1818H22.3636L10.7273 97H0ZM20.2727 15.3636C18.1818 15.3636 16.3788 14.6515 14.8636 13.2273C13.3788 11.803 12.6364 10.0909 12.6364 8.0909C12.6364 6.0909 13.3788 4.37878 14.8636 2.95454C16.3788 1.5303 18.1818 0.818176 20.2727 0.818176C22.3636 0.818176 24.1515 1.5303 25.6364 2.95454C27.1515 4.37878 27.9091 6.0909 27.9091 8.0909C27.9091 10.0909 27.1515 11.803 25.6364 13.2273C24.1515 14.6515 22.3636 15.3636 20.2727 15.3636ZM48.0114 55L41.1023 97H30.375L42.0114 27.1818H52.375L50.5568 38.0909H51.4659C53.6477 34.5455 56.6023 31.697 60.3295 29.5455C64.0568 27.3636 68.5568 26.2727 73.8295 26.2727C78.4962 26.2727 82.4356 27.2424 85.6477 29.1818C88.8902 31.0909 91.178 34 92.5114 37.9091C93.875 41.7879 94.072 46.697 93.1023 52.6364L85.6477 97H74.9205L82.1932 53.3636C83.1023 47.9091 82.3902 43.6364 80.0568 40.5455C77.7538 37.4545 74.1023 35.9091 69.1023 35.9091C65.6477 35.9091 62.4508 36.6515 59.5114 38.1364C56.6023 39.6212 54.1326 41.7879 52.1023 44.6364C50.1023 47.4848 48.7386 50.9394 48.0114 55ZM163.795 42.8182L153.614 45.5455C153.25 43.9091 152.614 42.3333 151.705 40.8182C150.826 39.2727 149.462 38.0152 147.614 37.0455C145.795 36.0455 143.311 35.5455 140.159 35.5455C135.886 35.5455 132.174 36.5303 129.023 38.5C125.871 40.4394 124.068 42.9091 123.614 45.9091C123.159 48.5455 123.765 50.6515 125.432 52.2273C127.098 53.803 129.886 55.0909 133.795 56.0909L143.795 58.6364C149.795 60.1818 154.068 62.5 156.614 65.5909C159.189 68.6515 160.068 72.6364 159.25 77.5455C158.583 81.5455 156.841 85.1212 154.023 88.2727C151.205 91.4242 147.598 93.9091 143.205 95.7273C138.811 97.5455 133.917 98.4545 128.523 98.4545C121.341 98.4545 115.674 96.9091 111.523 93.8182C107.371 90.697 105.159 86.1818 104.886 80.2727L115.614 77.7273C115.886 81.4545 117.22 84.2727 119.614 86.1818C122.038 88.0606 125.432 89 129.795 89C134.795 89 138.962 87.9394 142.295 85.8182C145.629 83.6667 147.523 81.0909 147.977 78.0909C148.432 75.6364 147.947 73.5909 146.523 71.9545C145.129 70.3182 142.705 69.0909 139.25 68.2727L128.159 65.5455C121.977 64 117.644 61.6364 115.159 58.4545C112.705 55.2727 111.886 51.2727 112.705 46.4545C113.371 42.5151 115.068 39.0303 117.795 36C120.553 32.9697 124.008 30.5909 128.159 28.8636C132.341 27.1364 136.886 26.2727 141.795 26.2727C148.705 26.2727 153.871 27.7879 157.295 30.8182C160.72 33.8182 162.886 37.8182 163.795 42.8182ZM200.307 98.4545C193.731 98.4545 188.337 96.9091 184.125 93.8182C179.943 90.7273 177.034 86.4697 175.398 81.0455C173.761 75.6212 173.519 69.4242 174.67 62.4545C175.822 55.3636 178.155 49.1061 181.67 43.6818C185.186 38.2273 189.564 33.9697 194.807 30.9091C200.049 27.8182 205.822 26.2727 212.125 26.2727C217.034 26.2727 221.307 27.1818 224.943 29C228.58 30.8182 231.383 33.3636 233.352 36.6364C235.322 39.9091 236.246 43.7273 236.125 48.0909H225.398C225.095 44.9091 223.731 42.0909 221.307 39.6364C218.913 37.1515 215.367 35.9091 210.67 35.9091C206.489 35.9091 202.64 37 199.125 39.1818C195.61 41.3333 192.655 44.3788 190.261 48.3182C187.867 52.2273 186.246 56.8182 185.398 62.0909C184.489 67.4848 184.564 72.1818 185.625 76.1818C186.686 80.1818 188.61 83.2879 191.398 85.5C194.186 87.7121 197.701 88.8182 201.943 88.8182C204.731 88.8182 207.337 88.3333 209.761 87.3636C212.186 86.3939 214.337 85 216.216 83.1818C218.095 81.3636 219.58 79.1818 220.67 76.6364H231.398C230.064 80.7576 227.928 84.4697 224.989 87.7727C222.049 91.0455 218.489 93.6515 214.307 95.5909C210.125 97.5 205.458 98.4545 200.307 98.4545ZM243.625 97L255.261 27.1818H265.625L263.807 37.7273H264.534C266.352 34.2727 269.125 31.4697 272.852 29.3182C276.58 27.1667 280.534 26.0909 284.716 26.0909C285.534 26.0909 286.519 26.1061 287.67 26.1364C288.822 26.1364 289.716 26.1818 290.352 26.2727L288.534 37.1818C288.17 37.0909 287.352 36.9545 286.08 36.7727C284.807 36.5606 283.443 36.4545 281.989 36.4545C278.595 36.4545 275.458 37.1667 272.58 38.5909C269.701 39.9848 267.292 41.9242 265.352 44.4091C263.413 46.8636 262.17 49.6667 261.625 52.8182L254.352 97H243.625ZM291.5 97L303.136 27.1818H313.864L302.227 97H291.5ZM311.773 15.3636C309.682 15.3636 307.879 14.6515 306.364 13.2273C304.879 11.803 304.136 10.0909 304.136 8.0909C304.136 6.0909 304.879 4.37878 306.364 2.95454C307.879 1.5303 309.682 0.818176 311.773 0.818176C313.864 0.818176 315.652 1.5303 317.136 2.95454C318.652 4.37878 319.409 6.0909 319.409 8.0909C319.409 10.0909 318.652 11.803 317.136 13.2273C315.652 14.6515 313.864 15.3636 311.773 15.3636ZM323.33 97L338.784 3.90909H349.511L343.875 38.2727H344.784C345.754 37.0606 347.102 35.5151 348.83 33.6364C350.557 31.7273 352.875 30.0303 355.784 28.5455C358.693 27.0303 362.42 26.2727 366.966 26.2727C372.845 26.2727 377.769 27.7424 381.739 30.6818C385.739 33.6212 388.542 37.7879 390.148 43.1818C391.784 48.5758 391.996 54.9394 390.784 62.2727C389.572 69.6667 387.254 76.0758 383.83 81.5C380.436 86.8939 376.254 91.0758 371.284 94.0455C366.345 96.9848 360.966 98.4545 355.148 98.4545C350.663 98.4545 347.193 97.7121 344.739 96.2273C342.314 94.7121 340.527 93 339.375 91.0909C338.254 89.1515 337.39 87.5455 336.784 86.2727H335.511L333.693 97H323.33ZM339.693 62.0909C338.845 67.3636 338.86 72.0152 339.739 76.0455C340.617 80.0455 342.36 83.1818 344.966 85.4545C347.572 87.697 351.027 88.8182 355.33 88.8182C359.814 88.8182 363.754 87.6364 367.148 85.2727C370.542 82.8788 373.33 79.6667 375.511 75.6364C377.693 71.5758 379.208 67.0606 380.057 62.0909C380.845 57.1818 380.814 52.7576 379.966 48.8182C379.148 44.8485 377.42 41.7121 374.784 39.4091C372.178 37.0758 368.602 35.9091 364.057 35.9091C359.693 35.9091 355.83 37.0151 352.466 39.2273C349.133 41.4091 346.375 44.4697 344.193 48.4091C342.042 52.3182 340.542 56.8788 339.693 62.0909ZM430.466 98.4545C423.769 98.4545 418.239 96.9697 413.875 94C409.511 91 406.466 86.8182 404.739 81.4545C403.011 76.0606 402.739 69.7879 403.92 62.6364C405.102 55.4848 407.451 49.1818 410.966 43.7273C414.481 38.2424 418.86 33.9697 424.102 30.9091C429.345 27.8182 435.102 26.2727 441.375 26.2727C445.011 26.2727 448.511 26.8788 451.875 28.0909C455.239 29.303 458.148 31.2727 460.602 34C463.057 36.697 464.769 40.2727 465.739 44.7273C466.708 49.1818 466.648 54.6667 465.557 61.1818L464.83 65.7273H411.011L412.466 56.4545H455.375C456.072 52.5151 455.89 49 454.83 45.9091C453.799 42.8182 451.996 40.3788 449.42 38.5909C446.875 36.803 443.648 35.9091 439.739 35.9091C435.708 35.9091 431.951 37 428.466 39.1818C424.981 41.3333 422.072 44.0606 419.739 47.3636C417.405 50.6364 415.951 53.9697 415.375 57.3636L414.102 65.3636C413.193 71.1515 413.33 75.7576 414.511 79.1818C415.723 82.6061 417.83 85.0758 420.83 86.5909C423.83 88.0758 427.587 88.8182 432.102 88.8182C434.981 88.8182 437.633 88.4242 440.057 87.6364C442.481 86.8182 444.648 85.6061 446.557 84C448.466 82.3636 450.072 80.3333 451.375 77.9091L461.193 80.8182C459.527 84.3333 457.178 87.4242 454.148 90.0909C451.148 92.7273 447.633 94.7879 443.602 96.2727C439.602 97.7273 435.223 98.4545 430.466 98.4545ZM502.398 98.4545C496.549 98.4545 491.64 96.9848 487.67 94.0455C483.701 91.0758 480.898 86.8939 479.261 81.5C477.655 76.0758 477.458 69.6667 478.67 62.2727C479.913 54.9394 482.231 48.5758 485.625 43.1818C489.049 37.7879 493.246 33.6212 498.216 30.6818C503.186 27.7424 508.61 26.2727 514.489 26.2727C519.034 26.2727 522.504 27.0303 524.898 28.5455C527.322 30.0303 529.08 31.7273 530.17 33.6364C531.261 35.5151 532.095 37.0606 532.67 38.2727H533.58L539.307 3.90909H550.034L534.58 97H524.216L526.034 86.2727H524.761C523.761 87.5455 522.367 89.1515 520.58 91.0909C518.792 93 516.428 94.7121 513.489 96.2273C510.58 97.7121 506.883 98.4545 502.398 98.4545ZM505.034 88.8182C509.337 88.8182 513.186 87.697 516.58 85.4545C520.004 83.1818 522.852 80.0455 525.125 76.0455C527.398 72.0152 528.973 67.3636 529.852 62.0909C530.731 56.8788 530.701 52.3182 529.761 48.4091C528.822 44.4697 527.019 41.4091 524.352 39.2273C521.686 37.0151 518.155 35.9091 513.761 35.9091C509.246 35.9091 505.322 37.0758 501.989 39.4091C498.655 41.7121 495.943 44.8485 493.852 48.8182C491.761 52.7576 490.307 57.1818 489.489 62.0909C488.67 67.0606 488.655 71.5758 489.443 75.6364C490.231 79.6667 491.898 82.8788 494.443 85.2727C497.019 87.6364 500.549 88.8182 505.034 88.8182ZM611.989 98.6364C607.564 98.6364 603.686 97.803 600.352 96.1364C597.019 94.4394 594.549 92 592.943 88.8182C591.337 85.6061 590.898 81.7273 591.625 77.1818C592.322 73.1818 593.67 69.9394 595.67 67.4545C597.67 64.9394 600.095 62.9697 602.943 61.5455C605.822 60.0909 608.913 59.0152 612.216 58.3182C615.549 57.5909 618.867 57.0303 622.17 56.6364C626.473 56.0909 629.973 55.6667 632.67 55.3636C635.367 55.0606 637.398 54.5606 638.761 53.8636C640.125 53.1667 640.958 51.9697 641.261 50.2727V49.9091C641.989 45.4545 641.398 41.9848 639.489 39.5C637.58 36.9848 634.17 35.7273 629.261 35.7273C624.17 35.7273 619.913 36.8485 616.489 39.0909C613.064 41.3333 610.534 43.7273 608.898 46.2727L599.443 42.6364C601.928 38.3939 604.898 35.0909 608.352 32.7273C611.807 30.3333 615.428 28.6667 619.216 27.7273C623.004 26.7576 626.655 26.2727 630.17 26.2727C632.413 26.2727 634.943 26.5455 637.761 27.0909C640.58 27.6061 643.216 28.6818 645.67 30.3182C648.155 31.9545 650.019 34.4242 651.261 37.7273C652.534 41.0303 652.716 45.4545 651.807 51L644.17 97H633.443L635.08 87.5455H634.534C633.564 89.0606 632.08 90.6818 630.08 92.4091C628.11 94.1364 625.61 95.6061 622.58 96.8182C619.58 98.0303 616.049 98.6364 611.989 98.6364ZM615.08 89C619.322 89 623.034 88.1667 626.216 86.5C629.428 84.8333 632.004 82.6818 633.943 80.0455C635.913 77.4091 637.14 74.6364 637.625 71.7273L639.261 61.9091C638.716 62.4545 637.64 62.9545 636.034 63.4091C634.428 63.8333 632.61 64.2121 630.58 64.5455C628.58 64.8485 626.625 65.1212 624.716 65.3636C622.837 65.5758 621.322 65.7576 620.17 65.9091C617.322 66.2727 614.61 66.8636 612.034 67.6818C609.489 68.4697 607.337 69.6667 605.58 71.2727C603.852 72.8485 602.777 75 602.352 77.7273C601.716 81.4545 602.61 84.2727 605.034 86.1818C607.458 88.0606 610.807 89 615.08 89ZM712.477 68.4545L719.386 27.1818H730.114L718.477 97H707.75L709.75 85.1818H709.023C706.841 88.7273 703.795 91.7424 699.886 94.2273C695.977 96.6818 691.386 97.9091 686.114 97.9091C681.75 97.9091 678.023 96.9545 674.932 95.0455C671.871 93.1061 669.689 90.197 668.386 86.3182C667.114 82.4091 666.962 77.4848 667.932 71.5455L675.386 27.1818H686.114L678.841 70.8182C678.023 75.9091 678.795 79.9697 681.159 83C683.523 86.0303 686.932 87.5455 691.386 87.5455C694.053 87.5455 696.871 86.8636 699.841 85.5C702.841 84.1364 705.508 82.0455 707.841 79.2273C710.205 76.4091 711.75 72.8182 712.477 68.4545ZM764.398 98.4545C758.549 98.4545 753.64 96.9848 749.67 94.0455C745.701 91.0758 742.898 86.8939 741.261 81.5C739.655 76.0758 739.458 69.6667 740.67 62.2727C741.913 54.9394 744.231 48.5758 747.625 43.1818C751.049 37.7879 755.246 33.6212 760.216 30.6818C765.186 27.7424 770.61 26.2727 776.489 26.2727C781.034 26.2727 784.504 27.0303 786.898 28.5455C789.322 30.0303 791.08 31.7273 792.17 33.6364C793.261 35.5151 794.095 37.0606 794.67 38.2727H795.58L801.307 3.90909H812.034L796.58 97H786.216L788.034 86.2727H786.761C785.761 87.5455 784.367 89.1515 782.58 91.0909C780.792 93 778.428 94.7121 775.489 96.2273C772.58 97.7121 768.883 98.4545 764.398 98.4545ZM767.034 88.8182C771.337 88.8182 775.186 87.697 778.58 85.4545C782.004 83.1818 784.852 80.0455 787.125 76.0455C789.398 72.0152 790.973 67.3636 791.852 62.0909C792.731 56.8788 792.701 52.3182 791.761 48.4091C790.822 44.4697 789.019 41.4091 786.352 39.2273C783.686 37.0151 780.155 35.9091 775.761 35.9091C771.246 35.9091 767.322 37.0758 763.989 39.4091C760.655 41.7121 757.943 44.8485 755.852 48.8182C753.761 52.7576 752.307 57.1818 751.489 62.0909C750.67 67.0606 750.655 71.5758 751.443 75.6364C752.231 79.6667 753.898 82.8788 756.443 85.2727C759.019 87.6364 762.549 88.8182 767.034 88.8182ZM817.625 97L829.261 27.1818H839.989L828.352 97H817.625ZM837.898 15.3636C835.807 15.3636 834.004 14.6515 832.489 13.2273C831.004 11.803 830.261 10.0909 830.261 8.0909C830.261 6.0909 831.004 4.37878 832.489 2.95454C834.004 1.5303 835.807 0.818176 837.898 0.818176C839.989 0.818176 841.777 1.5303 843.261 2.95454C844.777 4.37878 845.534 6.0909 845.534 8.0909C845.534 10.0909 844.777 11.803 843.261 13.2273C841.777 14.6515 839.989 15.3636 837.898 15.3636ZM876.818 98.4545C870.394 98.4545 865.015 96.9242 860.682 93.8636C856.348 90.803 853.288 86.5152 851.5 81C849.742 75.4848 849.455 69.0606 850.636 61.7273C851.788 54.5758 854.076 48.3485 857.5 43.0455C860.955 37.7121 865.242 33.5909 870.364 30.6818C875.515 27.7424 881.182 26.2727 887.364 26.2727C893.788 26.2727 899.152 27.8182 903.455 30.9091C907.788 33.9697 910.848 38.2727 912.636 43.8182C914.424 49.3333 914.727 55.7879 913.545 63.1818C912.394 70.2727 910.076 76.4697 906.591 81.7727C903.136 87.0455 898.848 91.1515 893.727 94.0909C888.636 97 883 98.4545 876.818 98.4545ZM877 88.8182C881.909 88.8182 886.167 87.5606 889.773 85.0455C893.409 82.5303 896.348 79.2121 898.591 75.0909C900.864 70.9697 902.394 66.5152 903.182 61.7273C903.909 57.1818 903.879 52.9545 903.091 49.0455C902.303 45.1061 900.621 41.9394 898.045 39.5455C895.47 37.1212 891.848 35.9091 887.182 35.9091C882.273 35.9091 877.985 37.1818 874.318 39.7273C870.682 42.2727 867.742 45.6212 865.5 49.7727C863.258 53.9242 861.758 58.3939 861 63.1818C860.273 67.7273 860.288 71.9545 861.045 75.8636C861.833 79.7424 863.515 82.8788 866.091 85.2727C868.697 87.6364 872.333 88.8182 877 88.8182Z"/>
</mask>
<path d="M0 97L11.6364 27.1818H22.3636L10.7273 97H0ZM20.2727 15.3636C18.1818 15.3636 16.3788 14.6515 14.8636 13.2273C13.3788 11.803 12.6364 10.0909 12.6364 8.0909C12.6364 6.0909 13.3788 4.37878 14.8636 2.95454C16.3788 1.5303 18.1818 0.818176 20.2727 0.818176C22.3636 0.818176 24.1515 1.5303 25.6364 2.95454C27.1515 4.37878 27.9091 6.0909 27.9091 8.0909C27.9091 10.0909 27.1515 11.803 25.6364 13.2273C24.1515 14.6515 22.3636 15.3636 20.2727 15.3636ZM48.0114 55L41.1023 97H30.375L42.0114 27.1818H52.375L50.5568 38.0909H51.4659C53.6477 34.5455 56.6023 31.697 60.3295 29.5455C64.0568 27.3636 68.5568 26.2727 73.8295 26.2727C78.4962 26.2727 82.4356 27.2424 85.6477 29.1818C88.8902 31.0909 91.178 34 92.5114 37.9091C93.875 41.7879 94.072 46.697 93.1023 52.6364L85.6477 97H74.9205L82.1932 53.3636C83.1023 47.9091 82.3902 43.6364 80.0568 40.5455C77.7538 37.4545 74.1023 35.9091 69.1023 35.9091C65.6477 35.9091 62.4508 36.6515 59.5114 38.1364C56.6023 39.6212 54.1326 41.7879 52.1023 44.6364C50.1023 47.4848 48.7386 50.9394 48.0114 55ZM163.795 42.8182L153.614 45.5455C153.25 43.9091 152.614 42.3333 151.705 40.8182C150.826 39.2727 149.462 38.0152 147.614 37.0455C145.795 36.0455 143.311 35.5455 140.159 35.5455C135.886 35.5455 132.174 36.5303 129.023 38.5C125.871 40.4394 124.068 42.9091 123.614 45.9091C123.159 48.5455 123.765 50.6515 125.432 52.2273C127.098 53.803 129.886 55.0909 133.795 56.0909L143.795 58.6364C149.795 60.1818 154.068 62.5 156.614 65.5909C159.189 68.6515 160.068 72.6364 159.25 77.5455C158.583 81.5455 156.841 85.1212 154.023 88.2727C151.205 91.4242 147.598 93.9091 143.205 95.7273C138.811 97.5455 133.917 98.4545 128.523 98.4545C121.341 98.4545 115.674 96.9091 111.523 93.8182C107.371 90.697 105.159 86.1818 104.886 80.2727L115.614 77.7273C115.886 81.4545 117.22 84.2727 119.614 86.1818C122.038 88.0606 125.432 89 129.795 89C134.795 89 138.962 87.9394 142.295 85.8182C145.629 83.6667 147.523 81.0909 147.977 78.0909C148.432 75.6364 147.947 73.5909 146.523 71.9545C145.129 70.3182 142.705 69.0909 139.25 68.2727L128.159 65.5455C121.977 64 117.644 61.6364 115.159 58.4545C112.705 55.2727 111.886 51.2727 112.705 46.4545C113.371 42.5151 115.068 39.0303 117.795 36C120.553 32.9697 124.008 30.5909 128.159 28.8636C132.341 27.1364 136.886 26.2727 141.795 26.2727C148.705 26.2727 153.871 27.7879 157.295 30.8182C160.72 33.8182 162.886 37.8182 163.795 42.8182ZM200.307 98.4545C193.731 98.4545 188.337 96.9091 184.125 93.8182C179.943 90.7273 177.034 86.4697 175.398 81.0455C173.761 75.6212 173.519 69.4242 174.67 62.4545C175.822 55.3636 178.155 49.1061 181.67 43.6818C185.186 38.2273 189.564 33.9697 194.807 30.9091C200.049 27.8182 205.822 26.2727 212.125 26.2727C217.034 26.2727 221.307 27.1818 224.943 29C228.58 30.8182 231.383 33.3636 233.352 36.6364C235.322 39.9091 236.246 43.7273 236.125 48.0909H225.398C225.095 44.9091 223.731 42.0909 221.307 39.6364C218.913 37.1515 215.367 35.9091 210.67 35.9091C206.489 35.9091 202.64 37 199.125 39.1818C195.61 41.3333 192.655 44.3788 190.261 48.3182C187.867 52.2273 186.246 56.8182 185.398 62.0909C184.489 67.4848 184.564 72.1818 185.625 76.1818C186.686 80.1818 188.61 83.2879 191.398 85.5C194.186 87.7121 197.701 88.8182 201.943 88.8182C204.731 88.8182 207.337 88.3333 209.761 87.3636C212.186 86.3939 214.337 85 216.216 83.1818C218.095 81.3636 219.58 79.1818 220.67 76.6364H231.398C230.064 80.7576 227.928 84.4697 224.989 87.7727C222.049 91.0455 218.489 93.6515 214.307 95.5909C210.125 97.5 205.458 98.4545 200.307 98.4545ZM243.625 97L255.261 27.1818H265.625L263.807 37.7273H264.534C266.352 34.2727 269.125 31.4697 272.852 29.3182C276.58 27.1667 280.534 26.0909 284.716 26.0909C285.534 26.0909 286.519 26.1061 287.67 26.1364C288.822 26.1364 289.716 26.1818 290.352 26.2727L288.534 37.1818C288.17 37.0909 287.352 36.9545 286.08 36.7727C284.807 36.5606 283.443 36.4545 281.989 36.4545C278.595 36.4545 275.458 37.1667 272.58 38.5909C269.701 39.9848 267.292 41.9242 265.352 44.4091C263.413 46.8636 262.17 49.6667 261.625 52.8182L254.352 97H243.625ZM291.5 97L303.136 27.1818H313.864L302.227 97H291.5ZM311.773 15.3636C309.682 15.3636 307.879 14.6515 306.364 13.2273C304.879 11.803 304.136 10.0909 304.136 8.0909C304.136 6.0909 304.879 4.37878 306.364 2.95454C307.879 1.5303 309.682 0.818176 311.773 0.818176C313.864 0.818176 315.652 1.5303 317.136 2.95454C318.652 4.37878 319.409 6.0909 319.409 8.0909C319.409 10.0909 318.652 11.803 317.136 13.2273C315.652 14.6515 313.864 15.3636 311.773 15.3636ZM323.33 97L338.784 3.90909H349.511L343.875 38.2727H344.784C345.754 37.0606 347.102 35.5151 348.83 33.6364C350.557 31.7273 352.875 30.0303 355.784 28.5455C358.693 27.0303 362.42 26.2727 366.966 26.2727C372.845 26.2727 377.769 27.7424 381.739 30.6818C385.739 33.6212 388.542 37.7879 390.148 43.1818C391.784 48.5758 391.996 54.9394 390.784 62.2727C389.572 69.6667 387.254 76.0758 383.83 81.5C380.436 86.8939 376.254 91.0758 371.284 94.0455C366.345 96.9848 360.966 98.4545 355.148 98.4545C350.663 98.4545 347.193 97.7121 344.739 96.2273C342.314 94.7121 340.527 93 339.375 91.0909C338.254 89.1515 337.39 87.5455 336.784 86.2727H335.511L333.693 97H323.33ZM339.693 62.0909C338.845 67.3636 338.86 72.0152 339.739 76.0455C340.617 80.0455 342.36 83.1818 344.966 85.4545C347.572 87.697 351.027 88.8182 355.33 88.8182C359.814 88.8182 363.754 87.6364 367.148 85.2727C370.542 82.8788 373.33 79.6667 375.511 75.6364C377.693 71.5758 379.208 67.0606 380.057 62.0909C380.845 57.1818 380.814 52.7576 379.966 48.8182C379.148 44.8485 377.42 41.7121 374.784 39.4091C372.178 37.0758 368.602 35.9091 364.057 35.9091C359.693 35.9091 355.83 37.0151 352.466 39.2273C349.133 41.4091 346.375 44.4697 344.193 48.4091C342.042 52.3182 340.542 56.8788 339.693 62.0909ZM430.466 98.4545C423.769 98.4545 418.239 96.9697 413.875 94C409.511 91 406.466 86.8182 404.739 81.4545C403.011 76.0606 402.739 69.7879 403.92 62.6364C405.102 55.4848 407.451 49.1818 410.966 43.7273C414.481 38.2424 418.86 33.9697 424.102 30.9091C429.345 27.8182 435.102 26.2727 441.375 26.2727C445.011 26.2727 448.511 26.8788 451.875 28.0909C455.239 29.303 458.148 31.2727 460.602 34C463.057 36.697 464.769 40.2727 465.739 44.7273C466.708 49.1818 466.648 54.6667 465.557 61.1818L464.83 65.7273H411.011L412.466 56.4545H455.375C456.072 52.5151 455.89 49 454.83 45.9091C453.799 42.8182 451.996 40.3788 449.42 38.5909C446.875 36.803 443.648 35.9091 439.739 35.9091C435.708 35.9091 431.951 37 428.466 39.1818C424.981 41.3333 422.072 44.0606 419.739 47.3636C417.405 50.6364 415.951 53.9697 415.375 57.3636L414.102 65.3636C413.193 71.1515 413.33 75.7576 414.511 79.1818C415.723 82.6061 417.83 85.0758 420.83 86.5909C423.83 88.0758 427.587 88.8182 432.102 88.8182C434.981 88.8182 437.633 88.4242 440.057 87.6364C442.481 86.8182 444.648 85.6061 446.557 84C448.466 82.3636 450.072 80.3333 451.375 77.9091L461.193 80.8182C459.527 84.3333 457.178 87.4242 454.148 90.0909C451.148 92.7273 447.633 94.7879 443.602 96.2727C439.602 97.7273 435.223 98.4545 430.466 98.4545ZM502.398 98.4545C496.549 98.4545 491.64 96.9848 487.67 94.0455C483.701 91.0758 480.898 86.8939 479.261 81.5C477.655 76.0758 477.458 69.6667 478.67 62.2727C479.913 54.9394 482.231 48.5758 485.625 43.1818C489.049 37.7879 493.246 33.6212 498.216 30.6818C503.186 27.7424 508.61 26.2727 514.489 26.2727C519.034 26.2727 522.504 27.0303 524.898 28.5455C527.322 30.0303 529.08 31.7273 530.17 33.6364C531.261 35.5151 532.095 37.0606 532.67 38.2727H533.58L539.307 3.90909H550.034L534.58 97H524.216L526.034 86.2727H524.761C523.761 87.5455 522.367 89.1515 520.58 91.0909C518.792 93 516.428 94.7121 513.489 96.2273C510.58 97.7121 506.883 98.4545 502.398 98.4545ZM505.034 88.8182C509.337 88.8182 513.186 87.697 516.58 85.4545C520.004 83.1818 522.852 80.0455 525.125 76.0455C527.398 72.0152 528.973 67.3636 529.852 62.0909C530.731 56.8788 530.701 52.3182 529.761 48.4091C528.822 44.4697 527.019 41.4091 524.352 39.2273C521.686 37.0151 518.155 35.9091 513.761 35.9091C509.246 35.9091 505.322 37.0758 501.989 39.4091C498.655 41.7121 495.943 44.8485 493.852 48.8182C491.761 52.7576 490.307 57.1818 489.489 62.0909C488.67 67.0606 488.655 71.5758 489.443 75.6364C490.231 79.6667 491.898 82.8788 494.443 85.2727C497.019 87.6364 500.549 88.8182 505.034 88.8182ZM611.989 98.6364C607.564 98.6364 603.686 97.803 600.352 96.1364C597.019 94.4394 594.549 92 592.943 88.8182C591.337 85.6061 590.898 81.7273 591.625 77.1818C592.322 73.1818 593.67 69.9394 595.67 67.4545C597.67 64.9394 600.095 62.9697 602.943 61.5455C605.822 60.0909 608.913 59.0152 612.216 58.3182C615.549 57.5909 618.867 57.0303 622.17 56.6364C626.473 56.0909 629.973 55.6667 632.67 55.3636C635.367 55.0606 637.398 54.5606 638.761 53.8636C640.125 53.1667 640.958 51.9697 641.261 50.2727V49.9091C641.989 45.4545 641.398 41.9848 639.489 39.5C637.58 36.9848 634.17 35.7273 629.261 35.7273C624.17 35.7273 619.913 36.8485 616.489 39.0909C613.064 41.3333 610.534 43.7273 608.898 46.2727L599.443 42.6364C601.928 38.3939 604.898 35.0909 608.352 32.7273C611.807 30.3333 615.428 28.6667 619.216 27.7273C623.004 26.7576 626.655 26.2727 630.17 26.2727C632.413 26.2727 634.943 26.5455 637.761 27.0909C640.58 27.6061 643.216 28.6818 645.67 30.3182C648.155 31.9545 650.019 34.4242 651.261 37.7273C652.534 41.0303 652.716 45.4545 651.807 51L644.17 97H633.443L635.08 87.5455H634.534C633.564 89.0606 632.08 90.6818 630.08 92.4091C628.11 94.1364 625.61 95.6061 622.58 96.8182C619.58 98.0303 616.049 98.6364 611.989 98.6364ZM615.08 89C619.322 89 623.034 88.1667 626.216 86.5C629.428 84.8333 632.004 82.6818 633.943 80.0455C635.913 77.4091 637.14 74.6364 637.625 71.7273L639.261 61.9091C638.716 62.4545 637.64 62.9545 636.034 63.4091C634.428 63.8333 632.61 64.2121 630.58 64.5455C628.58 64.8485 626.625 65.1212 624.716 65.3636C622.837 65.5758 621.322 65.7576 620.17 65.9091C617.322 66.2727 614.61 66.8636 612.034 67.6818C609.489 68.4697 607.337 69.6667 605.58 71.2727C603.852 72.8485 602.777 75 602.352 77.7273C601.716 81.4545 602.61 84.2727 605.034 86.1818C607.458 88.0606 610.807 89 615.08 89ZM712.477 68.4545L719.386 27.1818H730.114L718.477 97H707.75L709.75 85.1818H709.023C706.841 88.7273 703.795 91.7424 699.886 94.2273C695.977 96.6818 691.386 97.9091 686.114 97.9091C681.75 97.9091 678.023 96.9545 674.932 95.0455C671.871 93.1061 669.689 90.197 668.386 86.3182C667.114 82.4091 666.962 77.4848 667.932 71.5455L675.386 27.1818H686.114L678.841 70.8182C678.023 75.9091 678.795 79.9697 681.159 83C683.523 86.0303 686.932 87.5455 691.386 87.5455C694.053 87.5455 696.871 86.8636 699.841 85.5C702.841 84.1364 705.508 82.0455 707.841 79.2273C710.205 76.4091 711.75 72.8182 712.477 68.4545ZM764.398 98.4545C758.549 98.4545 753.64 96.9848 749.67 94.0455C745.701 91.0758 742.898 86.8939 741.261 81.5C739.655 76.0758 739.458 69.6667 740.67 62.2727C741.913 54.9394 744.231 48.5758 747.625 43.1818C751.049 37.7879 755.246 33.6212 760.216 30.6818C765.186 27.7424 770.61 26.2727 776.489 26.2727C781.034 26.2727 784.504 27.0303 786.898 28.5455C789.322 30.0303 791.08 31.7273 792.17 33.6364C793.261 35.5151 794.095 37.0606 794.67 38.2727H795.58L801.307 3.90909H812.034L796.58 97H786.216L788.034 86.2727H786.761C785.761 87.5455 784.367 89.1515 782.58 91.0909C780.792 93 778.428 94.7121 775.489 96.2273C772.58 97.7121 768.883 98.4545 764.398 98.4545ZM767.034 88.8182C771.337 88.8182 775.186 87.697 778.58 85.4545C782.004 83.1818 784.852 80.0455 787.125 76.0455C789.398 72.0152 790.973 67.3636 791.852 62.0909C792.731 56.8788 792.701 52.3182 791.761 48.4091C790.822 44.4697 789.019 41.4091 786.352 39.2273C783.686 37.0151 780.155 35.9091 775.761 35.9091C771.246 35.9091 767.322 37.0758 763.989 39.4091C760.655 41.7121 757.943 44.8485 755.852 48.8182C753.761 52.7576 752.307 57.1818 751.489 62.0909C750.67 67.0606 750.655 71.5758 751.443 75.6364C752.231 79.6667 753.898 82.8788 756.443 85.2727C759.019 87.6364 762.549 88.8182 767.034 88.8182ZM817.625 97L829.261 27.1818H839.989L828.352 97H817.625ZM837.898 15.3636C835.807 15.3636 834.004 14.6515 832.489 13.2273C831.004 11.803 830.261 10.0909 830.261 8.0909C830.261 6.0909 831.004 4.37878 832.489 2.95454C834.004 1.5303 835.807 0.818176 837.898 0.818176C839.989 0.818176 841.777 1.5303 843.261 2.95454C844.777 4.37878 845.534 6.0909 845.534 8.0909C845.534 10.0909 844.777 11.803 843.261 13.2273C841.777 14.6515 839.989 15.3636 837.898 15.3636ZM876.818 98.4545C870.394 98.4545 865.015 96.9242 860.682 93.8636C856.348 90.803 853.288 86.5152 851.5 81C849.742 75.4848 849.455 69.0606 850.636 61.7273C851.788 54.5758 854.076 48.3485 857.5 43.0455C860.955 37.7121 865.242 33.5909 870.364 30.6818C875.515 27.7424 881.182 26.2727 887.364 26.2727C893.788 26.2727 899.152 27.8182 903.455 30.9091C907.788 33.9697 910.848 38.2727 912.636 43.8182C914.424 49.3333 914.727 55.7879 913.545 63.1818C912.394 70.2727 910.076 76.4697 906.591 81.7727C903.136 87.0455 898.848 91.1515 893.727 94.0909C888.636 97 883 98.4545 876.818 98.4545ZM877 88.8182C881.909 88.8182 886.167 87.5606 889.773 85.0455C893.409 82.5303 896.348 79.2121 898.591 75.0909C900.864 70.9697 902.394 66.5152 903.182 61.7273C903.909 57.1818 903.879 52.9545 903.091 49.0455C902.303 45.1061 900.621 41.9394 898.045 39.5455C895.47 37.1212 891.848 35.9091 887.182 35.9091C882.273 35.9091 877.985 37.1818 874.318 39.7273C870.682 42.2727 867.742 45.6212 865.5 49.7727C863.258 53.9242 861.758 58.3939 861 63.1818C860.273 67.7273 860.288 71.9545 861.045 75.8636C861.833 79.7424 863.515 82.8788 866.091 85.2727C868.697 87.6364 872.333 88.8182 877 88.8182Z" fill="white"/>
<path d="M0 97L-0.986394 96.8356L-1.18046 98H0V97ZM11.6364 27.1818V26.1818H10.7892L10.65 27.0174L11.6364 27.1818ZM22.3636 27.1818L23.35 27.3462L23.5441 26.1818H22.3636V27.1818ZM10.7273 97V98H11.5744L11.7137 97.1644L10.7273 97ZM14.8636 13.2273L14.1714 13.949L14.1787 13.9559L14.8636 13.2273ZM14.8636 2.95454L14.1787 2.22588L14.1714 2.23286L14.8636 2.95454ZM25.6364 2.95454L24.9441 3.67626L24.9515 3.68317L25.6364 2.95454ZM25.6364 13.2273L24.9514 12.4986L24.9441 12.5056L25.6364 13.2273ZM0.986394 97.1644L12.6228 27.3462L10.65 27.0174L-0.986394 96.8356L0.986394 97.1644ZM11.6364 28.1818H22.3636V26.1818H11.6364V28.1818ZM21.3772 27.0174L9.74088 96.8356L11.7137 97.1644L23.35 27.3462L21.3772 27.0174ZM10.7273 96H0V98H10.7273V96ZM20.2727 14.3636C18.4348 14.3636 16.8771 13.7475 15.5485 12.4986L14.1787 13.9559C15.8805 15.5555 17.9289 16.3636 20.2727 16.3636V14.3636ZM15.5559 12.5056C14.2613 11.2638 13.6364 9.80977 13.6364 8.0909H11.6364C11.6364 10.372 12.4963 12.3422 14.1714 13.949L15.5559 12.5056ZM13.6364 8.0909C13.6364 6.37204 14.2613 4.91798 15.5559 3.67623L14.1714 2.23286C12.4963 3.83959 11.6364 5.80977 11.6364 8.0909H13.6364ZM15.5485 3.68317C16.8771 2.43432 18.4348 1.81818 20.2727 1.81818V-0.181824C17.9289 -0.181824 15.8805 0.626282 14.1787 2.22592L15.5485 3.68317ZM20.2727 1.81818C22.1103 1.81818 23.6488 2.43379 24.9441 3.67622L26.3286 2.23286C24.6542 0.62681 22.617 -0.181824 20.2727 -0.181824V1.81818ZM24.9515 3.68317C26.2745 4.92688 26.9091 6.37897 26.9091 8.0909H28.9091C28.9091 5.80284 28.0285 3.83069 26.3213 2.22592L24.9515 3.68317ZM26.9091 8.0909C26.9091 9.80284 26.2745 11.2549 24.9515 12.4986L26.3213 13.9559C28.0285 12.3511 28.9091 10.379 28.9091 8.0909H26.9091ZM24.9441 12.5056C23.6488 13.748 22.1103 14.3636 20.2727 14.3636V16.3636C22.617 16.3636 24.6542 15.555 26.3286 13.949L24.9441 12.5056ZM48.0114 55L47.027 54.8237L47.0258 54.8307L47.0246 54.8377L48.0114 55ZM41.1023 97V98H41.9512L42.089 97.1623L41.1023 97ZM30.375 97L29.3886 96.8356L29.1945 98H30.375V97ZM42.0114 27.1818V26.1818H41.1642L41.025 27.0174L42.0114 27.1818ZM52.375 27.1818L53.3614 27.3462L53.5555 26.1818H52.375V27.1818ZM50.5568 38.0909L49.5704 37.9265L49.3764 39.0909H50.5568V38.0909ZM51.4659 38.0909V39.0909H52.0247L52.3176 38.615L51.4659 38.0909ZM60.3295 29.5455L60.8295 30.4115L60.8347 30.4085L60.3295 29.5455ZM85.6477 29.1818L85.1308 30.0379L85.1404 30.0435L85.6477 29.1818ZM92.5114 37.9091L91.5649 38.2319L91.568 38.2408L92.5114 37.9091ZM93.1023 52.6364L94.0885 52.8021L94.0892 52.7975L93.1023 52.6364ZM85.6477 97V98H86.4937L86.6339 97.1657L85.6477 97ZM74.9205 97L73.9341 96.8356L73.74 98H74.9205V97ZM82.1932 53.3636L83.1796 53.528L83.1796 53.528L82.1932 53.3636ZM80.0568 40.5455L79.2549 41.1429L79.2587 41.148L80.0568 40.5455ZM59.5114 38.1364L59.0605 37.2438L59.0567 37.2457L59.5114 38.1364ZM52.1023 44.6364L51.2879 44.0559L51.2839 44.0617L52.1023 44.6364ZM47.0246 54.8377L40.1155 96.8377L42.089 97.1623L48.9981 55.1623L47.0246 54.8377ZM41.1023 96H30.375V98H41.1023V96ZM31.3614 97.1644L42.9978 27.3462L41.025 27.0174L29.3886 96.8356L31.3614 97.1644ZM42.0114 28.1818H52.375V26.1818H42.0114V28.1818ZM51.3886 27.0174L49.5704 37.9265L51.5432 38.2553L53.3614 27.3462L51.3886 27.0174ZM50.5568 39.0909H51.4659V37.0909H50.5568V39.0909ZM52.3176 38.615C54.4094 35.2159 57.241 32.4829 60.8295 30.4115L59.8296 28.6794C55.9636 30.911 52.8861 33.875 50.6143 37.5668L52.3176 38.615ZM60.8347 30.4085C64.3782 28.3342 68.6953 27.2727 73.8295 27.2727V25.2727C68.4183 25.2727 63.7354 26.393 59.8244 28.6824L60.8347 30.4085ZM73.8295 27.2727C78.3581 27.2727 82.1086 28.2131 85.1309 30.0379L86.1646 28.3258C82.7626 26.2717 78.6343 25.2727 73.8295 25.2727V27.2727ZM85.1404 30.0435C88.156 31.8191 90.3007 34.5254 91.5649 38.2319L93.4578 37.5863C92.0554 33.4746 89.6243 30.3627 86.1551 28.3201L85.1404 30.0435ZM91.568 38.2408C92.8562 41.9051 93.0697 46.6298 92.1153 52.4752L94.0892 52.7975C95.0743 46.7641 94.8938 41.6707 93.4548 37.5774L91.568 38.2408ZM92.1161 52.4707L84.6616 96.8343L86.6339 97.1657L94.0884 52.8021L92.1161 52.4707ZM85.6477 96H74.9205V98H85.6477V96ZM75.9068 97.1644L83.1796 53.528L81.2068 53.1992L73.9341 96.8356L75.9068 97.1644ZM83.1796 53.528C84.1142 47.9205 83.4138 43.3326 80.8549 39.943L79.2587 41.148C81.3665 43.9401 82.0904 47.8977 81.2068 53.1992L83.1796 53.528ZM80.8587 39.948C78.3129 36.5313 74.3152 34.9091 69.1023 34.9091V36.9091C73.8893 36.9091 77.1947 38.3778 79.2549 41.1429L80.8587 39.948ZM69.1023 34.9091C65.499 34.9091 62.1466 35.6848 59.0605 37.2438L59.9623 39.0289C62.755 37.6182 65.7965 36.9091 69.1023 36.9091V34.9091ZM59.0567 37.2457C55.9945 38.8087 53.4047 41.0862 51.288 44.0559L52.9166 45.2168C54.8604 42.4896 57.21 40.4337 59.966 39.027L59.0567 37.2457ZM51.2839 44.0617C49.1862 47.0494 47.7753 50.6461 47.027 54.8237L48.9957 55.1763C49.702 51.2327 51.0184 47.9203 52.9207 45.211L51.2839 44.0617ZM163.795 42.8182L164.054 43.7841L164.944 43.5458L164.779 42.6393L163.795 42.8182ZM153.614 45.5455L152.637 45.7624L152.864 46.7815L153.872 46.5114L153.614 45.5455ZM151.705 40.8182L150.835 41.3125L150.841 41.3226L150.847 41.3327L151.705 40.8182ZM147.614 37.0455L147.132 37.9217L147.14 37.9264L147.149 37.931L147.614 37.0455ZM129.023 38.5L129.547 39.3517L129.553 39.348L129.023 38.5ZM123.614 45.9091L124.599 46.079L124.601 46.069L124.602 46.0589L123.614 45.9091ZM125.432 52.2273L124.745 52.9539L124.745 52.9539L125.432 52.2273ZM133.795 56.0909L133.548 57.0597L133.549 57.06L133.795 56.0909ZM143.795 58.6364L144.045 57.668L144.042 57.6673L143.795 58.6364ZM156.614 65.5909L155.842 66.2267L155.849 66.2348L156.614 65.5909ZM159.25 77.5455L158.264 77.3811L158.264 77.3811L159.25 77.5455ZM143.205 95.7273L143.587 96.6513L143.587 96.6513L143.205 95.7273ZM111.523 93.8182L110.922 94.6175L110.926 94.6203L111.523 93.8182ZM104.886 80.2727L104.655 79.2997L103.849 79.4911L103.887 80.3188L104.886 80.2727ZM115.614 77.7273L116.611 77.6543L116.525 76.4832L115.383 76.7543L115.614 77.7273ZM119.614 86.1818L118.99 86.9637L119.001 86.9722L119.614 86.1818ZM142.295 85.8182L142.832 86.6619L142.838 86.6584L142.295 85.8182ZM147.977 78.0909L146.994 77.9088L146.991 77.9249L146.989 77.9411L147.977 78.0909ZM146.523 71.9545L145.761 72.603L145.768 72.6111L146.523 71.9545ZM139.25 68.2727L139.011 69.2438L139.02 69.2458L139.25 68.2727ZM128.159 65.5455L127.917 66.5156L127.92 66.5165L128.159 65.5455ZM115.159 58.4545L114.367 59.0654L114.371 59.07L115.159 58.4545ZM112.705 46.4545L113.69 46.622L113.691 46.6214L112.705 46.4545ZM117.795 36L117.056 35.3269L117.052 35.331L117.795 36ZM128.159 28.8636L127.777 27.9394L127.775 27.9404L128.159 28.8636ZM157.295 30.8182L156.633 31.5671L156.636 31.5703L157.295 30.8182ZM163.537 41.8522L153.355 44.5795L153.872 46.5114L164.054 43.7841L163.537 41.8522ZM154.59 45.3285C154.202 43.5817 153.523 41.906 152.562 40.3037L150.847 41.3327C151.704 42.7607 152.298 44.2365 152.637 45.7624L154.59 45.3285ZM152.574 40.3239C151.585 38.5847 150.066 37.2028 148.078 36.1599L147.149 37.931C148.858 38.8275 150.067 39.9607 150.835 41.3125L152.574 40.3239ZM148.096 36.1692C146.073 35.0566 143.399 34.5455 140.159 34.5455V36.5455C143.222 36.5455 145.518 37.0343 147.132 37.9217L148.096 36.1692ZM140.159 34.5455C135.728 34.5455 131.826 35.5688 128.493 37.652L129.553 39.348C132.523 37.4918 136.045 36.5455 140.159 36.5455V34.5455ZM128.499 37.6483C125.157 39.7049 123.133 42.405 122.625 45.7593L124.602 46.0589C125.003 43.4131 126.586 41.1739 129.547 39.3517L128.499 37.6483ZM122.628 45.7392C122.128 48.6418 122.791 51.107 124.745 52.9539L126.119 51.5006C124.739 50.196 124.19 48.4491 124.599 46.079L122.628 45.7392ZM124.745 52.9539C126.596 54.7044 129.582 56.0452 133.548 57.0597L134.043 55.1221C130.191 54.1366 127.601 52.9016 126.119 51.5006L124.745 52.9539ZM133.549 57.06L143.549 59.6055L144.042 57.6673L134.042 55.1218L133.549 57.06ZM143.546 59.6048C149.446 61.1245 153.486 63.3666 155.842 66.2266L157.386 64.9552C154.65 61.6334 150.145 59.2392 144.045 57.668L143.546 59.6048ZM155.849 66.2348C158.191 69.0181 159.046 72.6842 158.264 77.3811L160.236 77.7099C161.09 72.5885 160.188 68.2849 157.379 64.947L155.849 66.2348ZM158.264 77.3811C157.629 81.186 155.975 84.5895 153.277 87.6061L154.768 88.9393C157.707 85.6529 159.537 81.9049 160.236 77.7099L158.264 77.3811ZM153.277 87.6061C150.571 90.6324 147.095 93.0353 142.822 94.8033L143.587 96.6513C148.102 94.7829 151.838 92.2161 154.768 88.9393L153.277 87.6061ZM142.822 94.8033C138.565 96.565 133.803 97.4545 128.523 97.4545V99.4545C134.03 99.4545 139.057 98.5259 143.587 96.6513L142.822 94.8033ZM128.523 97.4545C121.475 97.4545 116.043 95.9371 112.12 93.0161L110.926 94.6203C115.305 97.8811 121.207 99.4545 128.523 99.4545V97.4545ZM112.124 93.0189C108.245 90.103 106.146 85.8843 105.885 80.2266L103.887 80.3188C104.172 86.4793 106.497 91.2909 110.922 94.6175L112.124 93.0189ZM105.117 81.2457L115.845 78.7003L115.383 76.7543L104.655 79.2997L105.117 81.2457ZM114.616 77.8002C114.905 81.7395 116.331 84.8433 118.99 86.9637L120.237 85.4C118.108 83.7022 116.868 81.1696 116.611 77.6543L114.616 77.8002ZM119.001 86.9722C121.661 89.0338 125.301 90 129.795 90V88C125.562 88 122.415 87.0874 120.226 85.3914L119.001 86.9722ZM129.795 90C134.936 90 139.301 88.9091 142.832 86.6618L141.759 84.9745C138.623 86.9697 134.655 88 129.795 88V90ZM142.838 86.6584C146.333 84.4021 148.456 81.6052 148.966 78.2407L146.989 77.9411C146.589 80.5766 144.924 82.9312 141.753 84.978L142.838 86.6584ZM148.961 78.273C149.461 75.5695 148.933 73.2008 147.277 71.298L145.768 72.6111C146.961 73.981 147.402 75.7032 146.994 77.9088L148.961 78.273ZM147.284 71.3061C145.688 69.4327 143.019 68.1377 139.48 67.2996L139.02 69.2458C142.39 70.0441 144.569 71.2037 145.761 72.603L147.284 71.3061ZM139.489 67.3017L128.398 64.5744L127.92 66.5165L139.011 69.2438L139.489 67.3017ZM128.402 64.5753C122.319 63.0547 118.236 60.7692 115.947 57.839L114.371 59.07C117.052 62.5035 121.635 64.9453 127.917 66.5156L128.402 64.5753ZM115.951 57.8437C113.703 54.9296 112.908 51.2292 113.69 46.622L111.719 46.2871C110.865 51.3162 111.706 55.6158 114.367 59.0653L115.951 57.8437ZM113.691 46.6214C114.325 42.873 115.936 39.5613 118.539 36.669L117.052 35.331C114.201 38.4993 112.418 42.1573 111.719 46.2877L113.691 46.6214ZM118.535 36.673C121.185 33.7614 124.514 31.4634 128.543 29.7869L127.775 27.9404C123.501 29.7184 119.921 32.178 117.056 35.327L118.535 36.673ZM128.541 29.7879C132.592 28.1147 137.006 27.2727 141.795 27.2727V25.2727C136.767 25.2727 132.09 26.158 127.777 27.9394L128.541 29.7879ZM141.795 27.2727C148.581 27.2727 153.465 28.7638 156.633 31.567L157.958 30.0693C154.277 26.8119 148.828 25.2727 141.795 25.2727V27.2727ZM156.636 31.5703C159.871 34.4041 161.938 38.192 162.812 42.9971L164.779 42.6393C163.835 37.4444 161.568 33.2323 157.954 30.066L156.636 31.5703ZM184.125 93.8182L183.531 94.6224L183.533 94.6244L184.125 93.8182ZM174.67 62.4545L175.657 62.6176L175.658 62.6148L174.67 62.4545ZM181.67 43.6818L182.51 44.2257L182.511 44.2235L181.67 43.6818ZM194.807 30.9091L195.311 31.7727L195.315 31.7705L194.807 30.9091ZM224.943 29L225.39 28.1056L225.39 28.1056L224.943 29ZM233.352 36.6364L232.495 37.152L232.495 37.152L233.352 36.6364ZM236.125 48.0909V49.0909H237.098L237.125 48.1187L236.125 48.0909ZM225.398 48.0909L224.402 48.1857L224.488 49.0909H225.398V48.0909ZM221.307 39.6364L220.587 40.3302L220.595 40.3391L221.307 39.6364ZM199.125 39.1818L199.647 40.0348L199.652 40.0315L199.125 39.1818ZM190.261 48.3182L191.114 48.8404L191.116 48.8375L190.261 48.3182ZM185.398 62.0909L186.384 62.2571L186.385 62.2498L185.398 62.0909ZM185.625 76.1818L184.658 76.4381L184.658 76.4381L185.625 76.1818ZM209.761 87.3636L209.39 86.4352L209.39 86.4352L209.761 87.3636ZM216.216 83.1818L216.911 83.9004L216.911 83.9004L216.216 83.1818ZM220.67 76.6364V75.6364H220.011L219.751 76.2424L220.67 76.6364ZM231.398 76.6364L232.349 76.9442L232.772 75.6364H231.398V76.6364ZM224.989 87.7727L225.733 88.4409L225.736 88.4375L224.989 87.7727ZM214.307 95.5909L214.722 96.5006L214.728 96.4981L214.307 95.5909ZM200.307 97.4545C193.888 97.4545 188.717 95.9476 184.717 93.012L183.533 94.6244C187.957 97.8705 193.574 99.4545 200.307 99.4545V97.4545ZM184.719 93.014C180.727 90.0629 177.935 85.994 176.355 80.7566L174.44 81.3343C176.133 86.9454 179.16 91.3917 183.531 94.6224L184.719 93.014ZM176.355 80.7566C174.772 75.5104 174.524 69.4728 175.657 62.6176L173.684 62.2915C172.513 69.3757 172.75 75.732 174.44 81.3343L176.355 80.7566ZM175.658 62.6148C176.789 55.6453 179.078 49.5213 182.51 44.2257L180.831 43.138C177.233 48.6908 174.855 55.0819 173.683 62.2943L175.658 62.6148ZM182.511 44.2235C185.947 38.8919 190.214 34.7485 195.311 31.7727L194.303 30.0455C188.915 33.1909 184.424 37.5626 180.83 43.1401L182.511 44.2235ZM195.315 31.7705C200.398 28.7737 205.994 27.2727 212.125 27.2727V25.2727C205.65 25.2727 199.701 26.8627 194.299 30.0477L195.315 31.7705ZM212.125 27.2727C216.911 27.2727 221.024 28.1586 224.496 29.8944L225.39 28.1056C221.589 26.205 217.158 25.2727 212.125 25.2727V27.2727ZM224.496 29.8944C227.974 31.6335 230.63 34.0525 232.495 37.152L234.209 36.1207C232.135 32.6748 229.185 30.0029 225.39 28.1056L224.496 29.8944ZM232.495 37.152C234.353 40.2385 235.242 43.8626 235.125 48.0631L237.125 48.1187C237.25 43.592 236.291 39.5796 234.209 36.1207L232.495 37.152ZM236.125 47.0909H225.398V49.0909H236.125V47.0909ZM226.393 47.9961C226.067 44.5662 224.591 41.5381 222.018 38.9337L220.595 40.3391C222.872 42.6437 224.123 45.252 224.402 48.1857L226.393 47.9961ZM222.027 38.9425C219.384 36.1995 215.538 34.9091 210.67 34.9091V36.9091C215.197 36.9091 218.441 38.1035 220.587 40.3302L222.027 38.9425ZM210.67 34.9091C206.304 34.9091 202.273 36.051 198.598 38.3322L199.652 40.0315C203.007 37.949 206.673 36.9091 210.67 36.9091V34.9091ZM198.603 38.3289C194.937 40.573 191.873 43.7397 189.407 47.7989L191.116 48.8375C193.437 45.0179 196.283 42.0937 199.647 40.0347L198.603 38.3289ZM189.409 47.7959C186.936 51.833 185.276 56.5515 184.41 61.932L186.385 62.2498C187.216 57.0848 188.799 52.6215 191.114 48.8404L189.409 47.7959ZM184.412 61.9247C183.486 67.4161 183.551 72.2635 184.658 76.4381L186.592 75.9255C185.577 72.1001 185.491 67.5536 186.384 62.2571L184.412 61.9247ZM184.658 76.4381C185.765 80.6112 187.793 83.9163 190.776 86.2834L192.019 84.7166C189.427 82.6594 187.606 79.7524 186.592 75.9255L184.658 76.4381ZM190.776 86.2834C193.773 88.6614 197.52 89.8182 201.943 89.8182V87.8182C197.881 87.8182 194.598 86.7629 192.019 84.7166L190.776 86.2834ZM201.943 89.8182C204.85 89.8182 207.583 89.3122 210.133 88.2921L209.39 86.4352C207.092 87.3545 204.613 87.8182 201.943 87.8182V89.8182ZM210.133 88.2921C212.678 87.2741 214.939 85.8088 216.911 83.9004L215.52 82.4632C213.735 84.1912 211.693 85.5138 209.39 86.4352L210.133 88.2921ZM216.911 83.9004C218.891 81.9845 220.45 79.6904 221.59 77.0303L219.751 76.2424C218.71 78.6732 217.298 80.7427 215.52 82.4632L216.911 83.9004ZM220.67 77.6364H231.398V75.6364H220.67V77.6364ZM230.446 76.3285C229.157 80.3151 227.091 83.9062 224.242 87.1079L225.736 88.4375C228.765 85.0332 230.972 81.2001 232.349 76.9442L230.446 76.3285ZM224.245 87.1045C221.4 90.2717 217.951 92.7985 213.886 94.6837L214.728 96.4981C219.026 94.5045 222.698 91.8192 225.733 88.4409L224.245 87.1045ZM213.892 94.6812C209.855 96.524 205.332 97.4545 200.307 97.4545V99.4545C205.584 99.4545 210.395 98.476 214.722 96.5006L213.892 94.6812ZM243.625 97L242.639 96.8356L242.445 98H243.625V97ZM255.261 27.1818V26.1818H254.414L254.275 27.0174L255.261 27.1818ZM265.625 27.1818L266.61 27.3517L266.812 26.1818H265.625V27.1818ZM263.807 37.7273L262.821 37.5574L262.62 38.7273H263.807V37.7273ZM264.534 37.7273V38.7273H265.138L265.419 38.193L264.534 37.7273ZM272.852 29.3182L272.352 28.4521L272.352 28.4521L272.852 29.3182ZM287.67 26.1364L287.644 27.136L287.657 27.1364H287.67V26.1364ZM290.352 26.2727L291.339 26.4371L291.507 25.4275L290.494 25.2828L290.352 26.2727ZM288.534 37.1818L288.292 38.152L289.342 38.4147L289.52 37.3462L288.534 37.1818ZM286.08 36.7727L285.915 37.7591L285.927 37.761L285.938 37.7627L286.08 36.7727ZM272.58 38.5909L273.015 39.491L273.023 39.4872L272.58 38.5909ZM265.352 44.4091L266.137 45.0291L266.141 45.0244L265.352 44.4091ZM261.625 52.8182L260.64 52.6476L260.638 52.6558L261.625 52.8182ZM254.352 97V98H255.201L255.339 97.1624L254.352 97ZM244.611 97.1644L256.248 27.3462L254.275 27.0174L242.639 96.8356L244.611 97.1644ZM255.261 28.1818H265.625V26.1818H255.261V28.1818ZM264.64 27.0119L262.821 37.5574L264.792 37.8972L266.61 27.3517L264.64 27.0119ZM263.807 38.7273H264.534V36.7273H263.807V38.7273ZM265.419 38.193C267.14 34.9225 269.771 32.2514 273.352 30.1842L272.352 28.4521C268.479 30.688 265.564 33.623 263.649 37.2615L265.419 38.193ZM273.352 30.1842C276.932 28.1178 280.715 27.0909 284.716 27.0909V25.0909C280.353 25.0909 276.227 26.2155 272.352 28.4521L273.352 30.1842ZM284.716 27.0909C285.523 27.0909 286.498 27.1059 287.644 27.136L287.697 25.1367C286.54 25.1063 285.546 25.0909 284.716 25.0909V27.0909ZM287.67 27.1364C288.805 27.1364 289.644 27.1817 290.211 27.2627L290.494 25.2828C289.788 25.1819 288.839 25.1364 287.67 25.1364V27.1364ZM289.366 26.1083L287.548 37.0174L289.52 37.3462L291.339 26.4371L289.366 26.1083ZM288.777 36.2117C288.353 36.1058 287.48 35.9626 286.221 35.7828L285.938 37.7627C287.224 37.9464 287.988 38.076 288.292 38.152L288.777 36.2117ZM286.244 35.7863C284.911 35.5641 283.491 35.4545 281.989 35.4545V37.4545C283.395 37.4545 284.703 37.5571 285.915 37.7591L286.244 35.7863ZM281.989 35.4545C278.45 35.4545 275.161 36.1983 272.136 37.6946L273.023 39.4872C275.756 38.135 278.74 37.4545 281.989 37.4545V35.4545ZM272.144 37.6909C269.129 39.1505 266.599 41.1865 264.564 43.7938L266.141 45.0244C267.984 42.662 270.272 40.8192 273.015 39.4909L272.144 37.6909ZM264.568 43.7891C262.523 46.3774 261.213 49.3358 260.64 52.6476L262.61 52.9887C263.128 49.9976 264.303 47.3498 266.137 45.029L264.568 43.7891ZM260.638 52.6558L253.366 96.8376L255.339 97.1624L262.612 52.9806L260.638 52.6558ZM254.352 96H243.625V98H254.352V96ZM291.5 97L290.514 96.8356L290.32 98H291.5V97ZM303.136 27.1818V26.1818H302.289L302.15 27.0174L303.136 27.1818ZM313.864 27.1818L314.85 27.3462L315.044 26.1818H313.864V27.1818ZM302.227 97V98H303.074L303.214 97.1644L302.227 97ZM306.364 13.2273L305.671 13.949L305.679 13.9559L306.364 13.2273ZM306.364 2.95454L305.679 2.22588L305.671 2.23286L306.364 2.95454ZM317.136 2.95454L316.444 3.67626L316.451 3.68317L317.136 2.95454ZM317.136 13.2273L316.451 12.4986L316.444 12.5056L317.136 13.2273ZM292.486 97.1644L304.123 27.3462L302.15 27.0174L290.514 96.8356L292.486 97.1644ZM303.136 28.1818H313.864V26.1818H303.136V28.1818ZM312.877 27.0174L301.241 96.8356L303.214 97.1644L314.85 27.3462L312.877 27.0174ZM302.227 96H291.5V98H302.227V96ZM311.773 14.3636C309.935 14.3636 308.377 13.7475 307.049 12.4986L305.679 13.9559C307.38 15.5555 309.429 16.3636 311.773 16.3636V14.3636ZM307.056 12.5056C305.761 11.2638 305.136 9.80977 305.136 8.0909H303.136C303.136 10.372 303.996 12.3422 305.671 13.949L307.056 12.5056ZM305.136 8.0909C305.136 6.37204 305.761 4.91798 307.056 3.67623L305.671 2.23286C303.996 3.83959 303.136 5.80977 303.136 8.0909H305.136ZM307.049 3.68317C308.377 2.43432 309.935 1.81818 311.773 1.81818V-0.181824C309.429 -0.181824 307.38 0.626282 305.679 2.22592L307.049 3.68317ZM311.773 1.81818C313.61 1.81818 315.149 2.43379 316.444 3.67622L317.829 2.23286C316.154 0.62681 314.117 -0.181824 311.773 -0.181824V1.81818ZM316.451 3.68317C317.775 4.92688 318.409 6.37897 318.409 8.0909H320.409C320.409 5.80284 319.528 3.83069 317.821 2.22592L316.451 3.68317ZM318.409 8.0909C318.409 9.80284 317.775 11.2549 316.451 12.4986L317.821 13.9559C319.528 12.3511 320.409 10.379 320.409 8.0909H318.409ZM316.444 12.5056C315.149 13.748 313.61 14.3636 311.773 14.3636V16.3636C314.117 16.3636 316.154 15.555 317.829 13.949L316.444 12.5056ZM323.33 97L322.343 96.8362L322.15 98H323.33V97ZM338.784 3.90909V2.90909H337.936L337.798 3.74531L338.784 3.90909ZM349.511 3.90909L350.498 4.07095L350.689 2.90909H349.511V3.90909ZM343.875 38.2727L342.888 38.1109L342.698 39.2727H343.875V38.2727ZM344.784 38.2727V39.2727H345.265L345.565 38.8974L344.784 38.2727ZM348.83 33.6364L349.566 34.3132L349.571 34.3073L348.83 33.6364ZM355.784 28.5455L356.239 29.4362L356.246 29.4324L355.784 28.5455ZM381.739 30.6818L381.144 31.4855L381.146 31.4876L381.739 30.6818ZM390.148 43.1818L389.189 43.4672L389.191 43.4721L390.148 43.1818ZM390.784 62.2727L389.797 62.1097L389.797 62.111L390.784 62.2727ZM383.83 81.5L382.984 80.9662L382.983 80.9674L383.83 81.5ZM371.284 94.0455L371.795 94.9048L371.797 94.9039L371.284 94.0455ZM344.739 96.2273L344.209 97.0753L344.215 97.0791L344.221 97.0829L344.739 96.2273ZM339.375 91.0909L338.509 91.5914L338.514 91.5995L338.519 91.6074L339.375 91.0909ZM336.784 86.2727L337.687 85.8428L337.415 85.2727H336.784V86.2727ZM335.511 86.2727V85.2727H334.667L334.525 86.1056L335.511 86.2727ZM333.693 97V98H334.538L334.679 97.1671L333.693 97ZM339.693 62.0909L338.706 61.9302L338.706 61.932L339.693 62.0909ZM339.739 76.0455L338.762 76.2585L338.762 76.26L339.739 76.0455ZM344.966 85.4545L344.309 86.2082L344.314 86.2126L344.966 85.4545ZM367.148 85.2727L367.719 86.0933L367.724 86.0899L367.148 85.2727ZM375.511 75.6364L376.391 76.1124L376.392 76.1097L375.511 75.6364ZM380.057 62.0909L381.043 62.2592L381.044 62.2494L380.057 62.0909ZM379.966 48.8182L378.986 49.0201L378.988 49.0287L379.966 48.8182ZM374.784 39.4091L374.117 40.1542L374.126 40.1622L374.784 39.4091ZM352.466 39.2273L353.014 40.064L353.015 40.0628L352.466 39.2273ZM344.193 48.4091L343.318 47.9246L343.317 47.9269L344.193 48.4091ZM324.316 97.1638L339.771 4.07286L337.798 3.74531L322.343 96.8362L324.316 97.1638ZM338.784 4.90909H349.511V2.90909H338.784V4.90909ZM348.525 3.74723L342.888 38.1109L344.862 38.4346L350.498 4.07095L348.525 3.74723ZM343.875 39.2727H344.784V37.2727H343.875V39.2727ZM345.565 38.8974C346.514 37.7108 347.845 36.1843 349.566 34.3132L348.093 32.9596C346.359 34.846 344.993 36.4104 344.003 37.648L345.565 38.8974ZM349.571 34.3073C351.198 32.5088 353.41 30.88 356.239 29.4361L355.329 27.6548C352.34 29.1806 349.915 30.9457 348.088 32.9654L349.571 34.3073ZM356.246 29.4324C358.968 28.0146 362.523 27.2727 366.966 27.2727V25.2727C362.318 25.2727 358.418 26.046 355.322 27.6585L356.246 29.4324ZM366.966 27.2727C372.672 27.2727 377.377 28.6965 381.144 31.4855L382.334 29.8781C378.161 26.7884 373.017 25.2727 366.966 25.2727V27.2727ZM381.146 31.4876C384.948 34.2811 387.637 38.2527 389.189 43.4672L391.106 42.8964C389.447 37.323 386.529 32.9613 382.331 29.876L381.146 31.4876ZM389.191 43.4721C390.771 48.6801 390.992 54.8815 389.797 62.1097L391.771 62.4358C393 54.9973 392.797 48.4714 391.105 42.8915L389.191 43.4721ZM389.797 62.111C388.603 69.3946 386.326 75.6726 382.984 80.9662L384.675 82.0338C388.182 76.4789 390.541 69.9387 391.771 62.4345L389.797 62.111ZM382.983 80.9674C379.665 86.2417 375.592 90.3061 370.771 93.187L371.797 94.9039C376.915 91.8454 381.207 87.5462 384.676 82.0326L382.983 80.9674ZM370.773 93.1861C365.99 96.0323 360.788 97.4545 355.148 97.4545V99.4545C361.144 99.4545 366.699 97.9374 371.795 94.9048L370.773 93.1861ZM355.148 97.4545C350.751 97.4545 347.49 96.723 345.256 95.3716L344.221 97.0829C346.896 98.7012 350.574 99.4545 355.148 99.4545V97.4545ZM345.269 95.3793C342.941 93.9246 341.282 92.3163 340.231 90.5744L338.519 91.6074C339.771 93.6837 341.688 95.4996 344.209 97.0753L345.269 95.3793ZM340.241 90.5904C339.126 88.6624 338.277 87.0818 337.687 85.8428L335.881 86.7027C336.503 88.0091 337.381 89.6407 338.509 91.5914L340.241 90.5904ZM336.784 85.2727H335.511V87.2727H336.784V85.2727ZM334.525 86.1056L332.707 96.8329L334.679 97.1671L336.497 86.4398L334.525 86.1056ZM333.693 96H323.33V98H333.693V96ZM338.706 61.932C337.843 67.2936 337.85 72.0758 338.762 76.2585L340.716 75.8324C339.87 71.9545 339.846 67.4336 340.68 62.2498L338.706 61.932ZM338.762 76.26C339.678 80.4295 341.513 83.77 344.309 86.2082L345.623 84.7009C343.207 82.5936 341.557 79.6614 340.715 75.8309L338.762 76.26ZM344.314 86.2126C347.143 88.6474 350.849 89.8182 355.33 89.8182V87.8182C351.204 87.8182 348.001 86.7466 345.618 84.6965L344.314 86.2126ZM355.33 89.8182C360.001 89.8182 364.143 88.5837 367.719 86.0933L366.576 84.4521C363.364 86.689 359.628 87.8182 355.33 87.8182V89.8182ZM367.724 86.0899C371.257 83.5983 374.143 80.264 376.391 76.1124L374.632 75.1603C372.516 79.0693 369.827 82.1593 366.571 84.4556L367.724 86.0899ZM376.392 76.1097C378.63 71.9452 380.178 67.3256 381.043 62.2592L379.071 61.9226C378.239 66.7956 376.756 71.2063 374.63 75.163L376.392 76.1097ZM381.044 62.2494C381.847 57.2454 381.823 52.6931 380.943 48.6076L378.988 49.0287C379.805 52.8221 379.842 57.1182 379.069 61.9324L381.044 62.2494ZM380.945 48.6163C380.09 44.4678 378.268 41.1247 375.442 38.656L374.126 40.1622C376.573 42.2996 378.205 45.2291 378.986 49.02L380.945 48.6163ZM375.451 38.6641C372.612 36.1223 368.773 34.9091 364.057 34.9091V36.9091C368.432 36.9091 371.744 38.0292 374.117 40.1541L375.451 38.6641ZM364.057 34.9091C359.515 34.9091 355.457 36.0633 351.916 38.3918L353.015 40.0628C356.202 37.967 359.871 36.9091 364.057 36.9091V34.9091ZM351.918 38.3906C348.432 40.6725 345.569 43.8617 343.318 47.9246L345.068 48.8936C347.181 45.0777 349.833 42.1457 353.014 40.064L351.918 38.3906ZM343.317 47.9269C341.101 51.9525 339.57 56.6256 338.706 61.9302L340.68 62.2516C341.514 57.132 342.982 52.6838 345.069 48.8913L343.317 47.9269ZM413.875 94L413.308 94.8241L413.312 94.8267L413.875 94ZM404.739 81.4545L403.786 81.7595L403.787 81.7611L404.739 81.4545ZM403.92 62.6364L404.907 62.7994L404.907 62.7994L403.92 62.6364ZM410.966 43.7273L411.806 44.269L411.808 44.2669L410.966 43.7273ZM424.102 30.9091L424.606 31.7727L424.61 31.7705L424.102 30.9091ZM451.875 28.0909L452.214 27.1501L452.214 27.1501L451.875 28.0909ZM460.602 34L459.859 34.669L459.863 34.6731L460.602 34ZM465.739 44.7273L464.762 44.94L464.762 44.94L465.739 44.7273ZM465.557 61.1818L464.571 61.0167L464.569 61.0238L465.557 61.1818ZM464.83 65.7273V66.7273H465.682L465.817 65.8853L464.83 65.7273ZM411.011 65.7273L410.023 65.5723L409.842 66.7273H411.011V65.7273ZM412.466 56.4545V55.4545H411.611L411.478 56.2996L412.466 56.4545ZM455.375 56.4545V57.4545H456.214L456.36 56.6288L455.375 56.4545ZM454.83 45.9091L453.881 46.2253L453.884 46.2336L454.83 45.9091ZM449.42 38.5909L448.846 39.4092L448.85 39.4124L449.42 38.5909ZM428.466 39.1818L428.991 40.0327L428.997 40.0294L428.466 39.1818ZM419.739 47.3636L420.553 47.9442L420.555 47.9406L419.739 47.3636ZM415.375 57.3636L414.389 57.1964L414.387 57.2065L415.375 57.3636ZM414.102 65.3636L413.115 65.2065L413.114 65.2085L414.102 65.3636ZM414.511 79.1818L413.566 79.5081L413.569 79.5155L414.511 79.1818ZM420.83 86.5909L420.379 87.4836L420.386 87.4871L420.83 86.5909ZM440.057 87.6364L440.366 88.5875L440.377 88.5839L440.057 87.6364ZM446.557 84L447.201 84.7653L447.208 84.7593L446.557 84ZM451.375 77.9091L451.659 76.9503L450.879 76.7192L450.494 77.4356L451.375 77.9091ZM461.193 80.8182L462.097 81.2466L462.597 80.1912L461.477 79.8594L461.193 80.8182ZM454.148 90.0909L454.808 90.8421L454.808 90.8416L454.148 90.0909ZM443.602 96.2727L443.944 97.2125L443.948 97.2111L443.602 96.2727ZM430.466 97.4545C423.916 97.4545 418.596 96.0031 414.438 93.1733L413.312 94.8267C417.881 97.9362 423.622 99.4545 430.466 99.4545V97.4545ZM414.442 93.176C410.272 90.3095 407.355 86.3157 405.69 81.148L403.787 81.7611C405.577 87.3206 408.751 91.6905 413.308 94.824L414.442 93.176ZM405.691 81.1496C404.024 75.943 403.744 69.8369 404.907 62.7994L402.934 62.4733C401.733 69.7388 401.999 76.1782 403.786 81.7595L405.691 81.1496ZM404.907 62.7994C406.069 55.767 408.374 49.5959 411.806 44.269L410.125 43.1856C406.528 48.7678 404.135 55.2027 402.934 62.4733L404.907 62.7994ZM411.808 44.2669C415.244 38.9052 419.511 34.7478 424.606 31.7727L423.598 30.0455C418.209 33.1916 413.718 37.5796 410.124 43.1877L411.808 44.2669ZM424.61 31.7705C429.694 28.7732 435.275 27.2727 441.375 27.2727V25.2727C434.929 25.2727 428.996 26.8632 423.594 30.0477L424.61 31.7705ZM441.375 27.2727C444.898 27.2727 448.283 27.8594 451.536 29.0317L452.214 27.1501C448.74 25.8981 445.125 25.2727 441.375 25.2727V27.2727ZM451.536 29.0317C454.74 30.1864 457.512 32.0609 459.859 34.669L461.346 33.331C458.784 30.4846 455.737 28.4196 452.214 27.1501L451.536 29.0317ZM459.863 34.6731C462.173 37.2114 463.82 40.6147 464.762 44.94L466.716 44.5146C465.718 39.9308 463.941 36.1825 461.342 33.3269L459.863 34.6731ZM464.762 44.94C465.695 49.2278 465.649 54.5754 464.571 61.0167L466.543 61.347C467.646 54.758 467.722 49.1358 466.716 44.5146L464.762 44.94ZM464.569 61.0238L463.842 65.5693L465.817 65.8853L466.544 61.3398L464.569 61.0238ZM464.83 64.7273H411.011V66.7273H464.83V64.7273ZM411.999 65.8822L413.454 56.6095L411.478 56.2996L410.023 65.5723L411.999 65.8822ZM412.466 57.4545H455.375V55.4545H412.466V57.4545ZM456.36 56.6288C457.08 52.5596 456.902 48.8679 455.775 45.5845L453.884 46.2336C454.878 49.1321 455.064 52.4707 454.39 56.2803L456.36 56.6288ZM455.778 45.5929C454.682 42.3057 452.751 39.6855 449.991 37.7694L448.85 39.4124C451.241 41.0721 452.916 43.3307 453.881 46.2253L455.778 45.5929ZM449.995 37.7726C447.243 35.8392 443.8 34.9091 439.739 34.9091V36.9091C443.495 36.9091 446.507 37.7668 448.846 39.4092L449.995 37.7726ZM439.739 34.9091C435.517 34.9091 431.576 36.0549 427.935 38.3342L428.997 40.0294C432.326 37.9451 435.9 36.9091 439.739 36.9091V34.9091ZM427.941 38.3309C424.343 40.5523 421.334 43.3722 418.922 46.7867L420.555 47.9406C422.81 44.749 425.619 42.1144 428.991 40.0327L427.941 38.3309ZM418.924 46.7831C416.518 50.1583 414.994 53.6305 414.389 57.1964L416.361 57.5309C416.907 54.3089 418.293 51.1144 420.553 47.9442L418.924 46.7831ZM414.387 57.2065L413.115 65.2065L415.09 65.5208L416.363 57.5208L414.387 57.2065ZM413.114 65.2085C412.194 71.0689 412.308 75.8621 413.566 79.5081L415.457 78.8556C414.351 75.6531 414.192 71.2341 415.09 65.5188L413.114 65.2085ZM413.569 79.5155C414.859 83.1609 417.129 85.8424 420.379 87.4835L421.28 85.6983C418.53 84.3091 416.588 82.0512 415.454 78.8481L413.569 79.5155ZM420.386 87.4871C423.563 89.0598 427.484 89.8182 432.102 89.8182V87.8182C427.69 87.8182 424.096 87.0917 421.273 85.6947L420.386 87.4871ZM432.102 89.8182C435.073 89.8182 437.83 89.4116 440.366 88.5874L439.748 86.6853C437.435 87.4369 434.889 87.8182 432.102 87.8182V89.8182ZM440.377 88.5839C442.916 87.7267 445.193 86.4538 447.201 84.7652L445.913 83.2348C444.102 84.7583 442.046 85.9096 439.737 86.6889L440.377 88.5839ZM447.208 84.7593C449.219 83.0354 450.9 80.9051 452.256 78.3825L450.494 77.4356C449.244 79.7615 447.713 81.6919 445.906 83.2407L447.208 84.7593ZM451.091 78.8679L460.909 81.777L461.477 79.8594L451.659 76.9503L451.091 78.8679ZM460.29 80.3898C458.683 83.7775 456.419 86.7599 453.487 89.3402L454.808 90.8416C457.937 88.0886 460.37 84.8892 462.097 81.2466L460.29 80.3898ZM453.488 89.3397C450.587 91.889 447.18 93.8888 443.257 95.3344L443.948 97.2111C448.085 95.6869 451.709 93.5656 454.808 90.8421L453.488 89.3397ZM443.261 95.3329C439.382 96.7432 435.121 97.4545 430.466 97.4545V99.4545C435.326 99.4545 439.822 98.7113 443.944 97.2125L443.261 95.3329ZM487.67 94.0455L487.071 94.8462L487.075 94.8491L487.67 94.0455ZM479.261 81.5L478.302 81.7839L478.304 81.7903L479.261 81.5ZM478.67 62.2727L477.684 62.1057L477.684 62.111L478.67 62.2727ZM485.625 43.1818L484.781 42.6459L484.779 42.6493L485.625 43.1818ZM498.216 30.6818L497.707 29.8211L497.707 29.8211L498.216 30.6818ZM524.898 28.5455L524.363 29.3904L524.369 29.3944L524.375 29.3982L524.898 28.5455ZM530.17 33.6364L529.302 34.1325L529.306 34.1385L530.17 33.6364ZM532.67 38.2727L531.767 38.7018L532.038 39.2727H532.67V38.2727ZM533.58 38.2727V39.2727H534.427L534.566 38.4371L533.58 38.2727ZM539.307 3.90909V2.90909H538.46L538.32 3.74469L539.307 3.90909ZM550.034 3.90909L551.021 4.07286L551.214 2.90909H550.034V3.90909ZM534.58 97V98H535.427L535.566 97.1638L534.58 97ZM524.216 97L523.23 96.8329L523.032 98H524.216V97ZM526.034 86.2727L527.02 86.4398L527.218 85.2727H526.034V86.2727ZM524.761 86.2727V85.2727H524.275L523.975 85.6549L524.761 86.2727ZM520.58 91.0909L521.309 91.7745L521.315 91.7687L520.58 91.0909ZM513.489 96.2273L513.943 97.118L513.947 97.1161L513.489 96.2273ZM516.58 85.4545L517.131 86.2889L517.133 86.2877L516.58 85.4545ZM525.125 76.0455L525.994 76.5395L525.996 76.5366L525.125 76.0455ZM529.852 62.0909L528.866 61.9246L528.866 61.9265L529.852 62.0909ZM529.761 48.4091L528.789 48.641L528.789 48.6427L529.761 48.4091ZM524.352 39.2273L523.714 39.9969L523.719 40.0012L524.352 39.2273ZM501.989 39.4091L502.557 40.2318L502.562 40.2283L501.989 39.4091ZM493.852 48.8182L494.736 49.287L494.737 49.2842L493.852 48.8182ZM489.489 62.0909L488.502 61.9265L488.502 61.9285L489.489 62.0909ZM489.443 75.6364L488.461 75.8268L488.462 75.8282L489.443 75.6364ZM494.443 85.2727L493.758 86.0012L493.767 86.0095L494.443 85.2727ZM502.398 97.4545C496.723 97.4545 492.033 96.0314 488.266 93.2418L487.075 94.8491C491.247 97.9383 496.376 99.4545 502.398 99.4545V97.4545ZM488.269 93.2447C484.493 90.4198 481.802 86.4288 480.218 81.2097L478.304 81.7903C479.994 87.359 482.908 91.7317 487.071 94.8462L488.269 93.2447ZM480.22 81.2161C478.669 75.9754 478.462 69.7258 479.657 62.4345L477.684 62.111C476.455 69.6075 476.642 76.1761 478.303 81.7839L480.22 81.2161ZM479.656 62.4398C480.88 55.2149 483.158 48.9798 486.471 43.7144L484.779 42.6493C481.304 48.1717 478.945 54.6639 477.685 62.1057L479.656 62.4398ZM486.469 43.7178C489.818 38.4426 493.905 34.3934 498.725 31.5425L497.707 29.8211C492.587 32.8491 488.28 37.1332 484.781 42.6459L486.469 43.7178ZM498.725 31.5425C503.538 28.696 508.786 27.2727 514.489 27.2727V25.2727C508.434 25.2727 502.834 26.7888 497.707 29.8211L498.725 31.5425ZM514.489 27.2727C518.949 27.2727 522.199 28.0206 524.363 29.3904L525.433 27.7005C522.809 26.04 519.119 25.2727 514.489 25.2727V27.2727ZM524.375 29.3982C526.697 30.8202 528.316 32.4061 529.302 34.1325L531.039 33.1402C529.843 31.0484 527.947 29.2404 525.42 27.6927L524.375 29.3982ZM529.306 34.1385C530.39 36.0061 531.208 37.5249 531.767 38.7018L533.574 37.8437C532.981 36.5963 532.133 35.0242 531.035 33.1342L529.306 34.1385ZM532.67 39.2727H533.58V37.2727H532.67V39.2727ZM534.566 38.4371L540.293 4.07349L538.32 3.74469L532.593 38.1083L534.566 38.4371ZM539.307 4.90909H550.034V2.90909H539.307V4.90909ZM549.048 3.74531L533.593 96.8362L535.566 97.1638L551.021 4.07286L549.048 3.74531ZM534.58 96H524.216V98H534.58V96ZM525.202 97.1671L527.02 86.4398L525.048 86.1056L523.23 96.8329L525.202 97.1671ZM526.034 85.2727H524.761V87.2727H526.034V85.2727ZM523.975 85.6549C522.998 86.8983 521.624 88.4827 519.844 90.4131L521.315 91.7687C523.111 89.8204 524.525 88.1927 525.548 86.8905L523.975 85.6549ZM519.85 90.4074C518.158 92.2142 515.894 93.8624 513.03 95.3384L513.947 97.1161C516.962 95.5618 519.426 93.7858 521.309 91.7745L519.85 90.4074ZM513.034 95.3366C510.308 96.7279 506.78 97.4545 502.398 97.4545V99.4545C506.985 99.4545 510.851 98.6964 513.943 97.118L513.034 95.3366ZM505.034 89.8182C509.521 89.8182 513.564 88.6458 517.131 86.2889L516.028 84.6202C512.808 86.7482 509.153 87.8182 505.034 87.8182V89.8182ZM517.133 86.2877C520.702 83.9184 523.654 80.6593 525.994 76.5395L524.256 75.5514C522.051 79.4316 519.305 82.4452 516.027 84.6214L517.133 86.2877ZM525.996 76.5366C528.334 72.3905 529.944 67.6253 530.839 62.2553L528.866 61.9265C528.003 67.102 526.461 71.6398 524.254 75.5543L525.996 76.5366ZM530.838 62.2572C531.733 56.9519 531.713 52.2498 530.734 48.1754L528.789 48.6427C529.689 52.3866 529.729 56.8056 528.866 61.9247L530.838 62.2572ZM530.734 48.1771C529.753 44.0635 527.85 40.797 524.986 38.4533L523.719 40.0012C526.188 42.0212 527.891 44.8759 528.789 48.641L530.734 48.1771ZM524.991 38.4576C522.101 36.0603 518.324 34.9091 513.761 34.9091V36.9091C517.986 36.9091 521.27 37.97 523.714 39.9969L524.991 38.4576ZM513.761 34.9091C509.065 34.9091 504.935 36.1261 501.415 38.5899L502.562 40.2283C505.709 38.0254 509.428 36.9091 513.761 36.9091V34.9091ZM501.42 38.5864C497.94 40.9906 495.125 44.2554 492.968 48.3522L494.737 49.2842C496.761 45.4416 499.37 42.4337 502.557 40.2318L501.42 38.5864ZM492.969 48.3494C490.822 52.3944 489.336 56.9233 488.502 61.9265L490.475 62.2553C491.278 57.4404 492.701 53.1208 494.736 49.287L492.969 48.3494ZM488.502 61.9285C487.669 66.9905 487.647 71.6276 488.461 75.8268L490.425 75.4459C489.664 71.5239 489.672 67.1307 490.475 62.2534L488.502 61.9285ZM488.462 75.8282C489.283 80.0269 491.035 83.4399 493.758 86.0012L495.128 84.5443C492.761 82.3176 491.18 79.3064 490.425 75.4445L488.462 75.8282ZM493.767 86.0095C496.575 88.5862 500.372 89.8182 505.034 89.8182V87.8182C500.726 87.8182 497.463 86.6866 495.119 84.5359L493.767 86.0095ZM600.352 96.1364L599.899 97.0276L599.905 97.0308L600.352 96.1364ZM592.943 88.8182L592.049 89.2654L592.05 89.2688L592.943 88.8182ZM591.625 77.1818L590.64 77.0101L590.638 77.0238L591.625 77.1818ZM595.67 67.4545L596.449 68.0816L596.453 68.0769L595.67 67.4545ZM602.943 61.5455L603.39 62.4399L603.394 62.438L602.943 61.5455ZM612.216 58.3182L612.422 59.2967L612.429 59.2952L612.216 58.3182ZM622.17 56.6364L622.289 57.6294L622.296 57.6284L622.17 56.6364ZM632.67 55.3636L632.782 56.3574L632.782 56.3574L632.67 55.3636ZM638.761 53.8636L639.216 54.7541L639.216 54.7541L638.761 53.8636ZM641.261 50.2727L642.246 50.4485L642.261 50.3613V50.2727H641.261ZM641.261 49.9091L640.274 49.748L640.261 49.828V49.9091H641.261ZM639.489 39.5L638.692 40.1046L638.696 40.1092L639.489 39.5ZM616.489 39.0909L617.036 39.9275L617.036 39.9275L616.489 39.0909ZM608.898 46.2727L608.539 47.2061L609.299 47.4983L609.739 46.8135L608.898 46.2727ZM599.443 42.6364L598.58 42.131L597.985 43.147L599.084 43.5697L599.443 42.6364ZM608.352 32.7273L608.917 33.5526L608.922 33.5492L608.352 32.7273ZM619.216 27.7273L619.457 28.6979L619.464 28.696L619.216 27.7273ZM637.761 27.0909L637.571 28.0727L637.582 28.0746L637.761 27.0909ZM645.67 30.3182L645.116 31.1502L645.12 31.1533L645.67 30.3182ZM651.261 37.7273L650.325 38.0793L650.328 38.0868L651.261 37.7273ZM651.807 51L652.793 51.1638L652.794 51.1618L651.807 51ZM644.17 97V98H645.018L645.157 97.1638L644.17 97ZM633.443 97L632.458 96.8295L632.255 98H633.443V97ZM635.08 87.5455L636.065 87.716L636.267 86.5455H635.08V87.5455ZM634.534 87.5455V86.5455H633.987L633.692 87.0064L634.534 87.5455ZM630.08 92.4091L629.426 91.6522L629.42 91.6572L630.08 92.4091ZM622.58 96.8182L622.208 95.8897L622.205 95.891L622.58 96.8182ZM626.216 86.5L625.755 85.6124L625.752 85.6142L626.216 86.5ZM633.943 80.0455L633.142 79.4469L633.138 79.4529L633.943 80.0455ZM637.625 71.7273L636.639 71.5629L636.639 71.5629L637.625 71.7273ZM639.261 61.9091L640.248 62.0735L640.761 58.9955L638.554 61.202L639.261 61.9091ZM636.034 63.4091L636.289 64.3759L636.298 64.3737L636.306 64.3713L636.034 63.4091ZM630.58 64.5455L630.729 65.5342L630.742 65.5322L630.58 64.5455ZM624.716 65.3636L624.828 66.3574L624.842 66.3557L624.716 65.3636ZM620.17 65.9091L620.297 66.901L620.301 66.9005L620.17 65.9091ZM612.034 67.6818L612.33 68.6371L612.337 68.6349L612.034 67.6818ZM605.58 71.2727L606.254 72.0115L606.254 72.0109L605.58 71.2727ZM602.352 77.7273L603.338 77.8956L603.339 77.8883L603.34 77.881L602.352 77.7273ZM605.034 86.1818L604.415 86.9675L604.422 86.9722L605.034 86.1818ZM611.989 97.6364C607.691 97.6364 603.97 96.8273 600.799 95.2419L599.905 97.0308C603.401 98.7787 607.438 99.6364 611.989 99.6364V97.6364ZM600.806 95.2452C597.652 93.6396 595.341 91.3498 593.836 88.3676L592.05 89.2688C593.757 92.6502 596.386 95.2392 599.899 97.0275L600.806 95.2452ZM593.838 88.371C592.348 85.3925 591.909 81.737 592.612 77.3398L590.638 77.0238C589.887 81.7175 590.326 85.8196 592.049 89.2654L593.838 88.371ZM592.61 77.3535C593.286 73.4757 594.581 70.4033 596.449 68.0816L594.891 66.8275C592.76 69.4755 591.358 72.8879 590.64 77.0102L592.61 77.3535ZM596.453 68.0769C598.363 65.6748 600.673 63.7984 603.39 62.4399L602.496 60.651C599.516 62.141 596.978 64.204 594.888 66.8322L596.453 68.0769ZM603.394 62.438C606.192 61.0244 609.2 59.9765 612.422 59.2966L612.009 57.3397C608.625 58.0538 605.452 59.1575 602.492 60.6529L603.394 62.438ZM612.429 59.2952C615.732 58.5746 619.018 58.0194 622.289 57.6293L622.052 55.6434C618.716 56.0412 615.367 56.6072 612.003 57.3412L612.429 59.2952ZM622.296 57.6284C626.597 57.0833 630.092 56.6597 632.782 56.3574L632.559 54.3699C629.855 54.6737 626.35 55.0986 622.045 55.6443L622.296 57.6284ZM632.782 56.3574C635.521 56.0496 637.693 55.5328 639.216 54.7541L638.306 52.9732C637.103 53.5884 635.214 54.0716 632.559 54.3699L632.782 56.3574ZM639.216 54.7541C640.896 53.8955 641.896 52.4091 642.246 50.4485L640.277 50.0969C640.021 51.5303 639.354 52.4378 638.306 52.9732L639.216 54.7541ZM642.261 50.2727V49.9091H640.261V50.2727H642.261ZM642.248 50.0702C643 45.4648 642.422 41.6762 640.282 38.8908L638.696 40.1092C640.374 42.2935 640.977 45.4443 640.274 49.748L642.248 50.0702ZM640.285 38.8954C638.101 36.0178 634.306 34.7273 629.261 34.7273V36.7273C634.035 36.7273 637.058 37.9519 638.692 40.1046L640.285 38.8954ZM629.261 34.7273C624.023 34.7273 619.564 35.8819 615.941 38.2543L617.036 39.9275C620.262 37.815 624.318 36.7273 629.261 36.7273V34.7273ZM615.941 38.2543C612.438 40.5481 609.791 43.0346 608.057 45.732L609.739 46.8135C611.278 44.42 613.691 42.1186 617.036 39.9275L615.941 38.2543ZM609.257 45.3394L599.802 41.703L599.084 43.5697L608.539 47.2061L609.257 45.3394ZM600.306 43.1418C602.729 39.0046 605.604 35.8196 608.917 33.5526L607.788 31.902C604.192 34.3622 601.127 37.7833 598.58 42.131L600.306 43.1418ZM608.922 33.5492C612.284 31.219 615.795 29.6059 619.457 28.6979L618.975 26.7567C615.061 27.7274 611.329 29.4477 607.783 31.9053L608.922 33.5492ZM619.464 28.696C623.18 27.7448 626.748 27.2727 630.17 27.2727V25.2727C626.563 25.2727 622.828 25.7704 618.968 26.7585L619.464 28.696ZM630.17 27.2727C632.334 27.2727 634.799 27.5362 637.571 28.0727L637.951 26.1091C635.087 25.5547 632.491 25.2727 630.17 25.2727V27.2727ZM637.582 28.0746C640.262 28.5645 642.771 29.5871 645.116 31.1502L646.225 29.4861C643.661 27.7765 640.897 26.6476 637.941 26.1072L637.582 28.0746ZM645.12 31.1533C647.398 32.6531 649.143 34.9362 650.325 38.0793L652.197 37.3752C650.895 33.9123 648.913 31.256 646.22 29.483L645.12 31.1533ZM650.328 38.0868C651.51 41.1536 651.716 45.3748 650.82 50.8382L652.794 51.1618C653.716 45.5343 653.558 40.907 652.194 37.3677L650.328 38.0868ZM650.82 50.8362L643.184 96.8362L645.157 97.1638L652.793 51.1638L650.82 50.8362ZM644.17 96H633.443V98H644.17V96ZM634.429 97.1705L636.065 87.716L634.094 87.3749L632.458 96.8295L634.429 97.1705ZM635.08 86.5455H634.534V88.5455H635.08V86.5455ZM633.692 87.0064C632.792 88.4118 631.384 89.9614 629.426 91.6523L630.733 93.1659C632.775 91.4022 634.336 89.7094 635.376 88.0845L633.692 87.0064ZM629.42 91.6572C627.554 93.2939 625.158 94.7098 622.208 95.8897L622.951 97.7467C626.062 96.5024 628.666 94.9788 630.739 93.161L629.42 91.6572ZM622.205 95.891C619.35 97.0445 615.952 97.6364 611.989 97.6364V99.6364C616.146 99.6364 619.809 99.0161 622.954 97.7454L622.205 95.891ZM615.08 90C619.454 90 623.331 89.14 626.68 87.3858L625.752 85.6142C622.737 87.1934 619.19 88 615.08 88V90ZM626.676 87.3876C630.01 85.6579 632.709 83.4105 634.749 80.638L633.138 79.4529C631.298 81.9532 628.846 84.0088 625.755 85.6124L626.676 87.3876ZM634.744 80.644C636.798 77.8948 638.097 74.9757 638.611 71.8917L636.639 71.5629C636.183 74.297 635.027 76.9234 633.142 79.4469L634.744 80.644ZM638.611 71.8917L640.248 62.0735L638.275 61.7447L636.639 71.5629L638.611 71.8917ZM638.554 61.202C638.205 61.5508 637.353 61.9965 635.762 62.4469L636.306 64.3713C637.927 63.9126 639.226 63.3583 639.968 62.6162L638.554 61.202ZM635.779 62.4423C634.21 62.8567 632.423 63.2293 630.418 63.5587L630.742 65.5322C632.796 65.1949 634.646 64.8099 636.289 64.3759L635.779 62.4423ZM630.43 63.5567C628.437 63.8586 626.491 64.1302 624.59 64.3716L624.842 66.3557C626.759 66.1122 628.722 65.8383 630.729 65.5342L630.43 63.5567ZM624.604 64.3699C622.722 64.5824 621.2 64.765 620.04 64.9176L620.301 66.9005C621.444 66.7502 622.952 66.5691 624.828 66.3573L624.604 64.3699ZM620.044 64.9171C617.139 65.2879 614.368 65.8912 611.731 66.7287L612.337 68.6349C614.852 67.836 617.505 67.2575 620.297 66.901L620.044 64.9171ZM611.738 66.7265C609.069 67.5527 606.784 68.8178 604.905 70.5345L606.254 72.0109C607.891 70.5155 609.908 69.3866 612.33 68.6371L611.738 66.7265ZM604.906 70.534C602.981 72.2899 601.817 74.6635 601.364 77.5736L603.34 77.881C603.736 75.3365 604.724 73.4071 606.254 72.0115L604.906 70.534ZM601.367 77.559C600.685 81.5509 601.634 84.7769 604.415 86.9675L605.653 85.3962C603.586 83.7686 602.747 81.3582 603.338 77.8956L601.367 77.559ZM604.422 86.9722C607.078 89.0313 610.671 90 615.08 90V88C610.943 88 607.838 87.0899 605.647 85.3914L604.422 86.9722ZM712.477 68.4545L711.491 68.2894L711.491 68.2901L712.477 68.4545ZM719.386 27.1818V26.1818H718.54L718.4 27.0167L719.386 27.1818ZM730.114 27.1818L731.1 27.3462L731.294 26.1818H730.114V27.1818ZM718.477 97V98H719.324L719.464 97.1644L718.477 97ZM707.75 97L706.764 96.8331L706.567 98H707.75V97ZM709.75 85.1818L710.736 85.3487L710.933 84.1818H709.75V85.1818ZM709.023 85.1818V84.1818H708.464L708.171 84.6577L709.023 85.1818ZM699.886 94.2273L700.418 95.0742L700.423 95.0712L699.886 94.2273ZM674.932 95.0455L674.397 95.8902L674.406 95.8963L674.932 95.0455ZM668.386 86.3182L667.435 86.6278L667.438 86.6366L668.386 86.3182ZM667.932 71.5455L666.946 71.3797L666.945 71.3843L667.932 71.5455ZM675.386 27.1818V26.1818H674.54L674.4 27.0161L675.386 27.1818ZM686.114 27.1818L687.1 27.3462L687.294 26.1818H686.114V27.1818ZM678.841 70.8182L677.854 70.6538L677.854 70.6595L678.841 70.8182ZM681.159 83L681.948 82.385L681.948 82.385L681.159 83ZM699.841 85.5L699.427 84.5896L699.424 84.5912L699.841 85.5ZM707.841 79.2273L707.075 78.5846L707.071 78.5895L707.841 79.2273ZM713.464 68.6196L720.373 27.3469L718.4 27.0167L711.491 68.2894L713.464 68.6196ZM719.386 28.1818H730.114V26.1818H719.386V28.1818ZM729.127 27.0174L717.491 96.8356L719.464 97.1644L731.1 27.3462L729.127 27.0174ZM718.477 96H707.75V98H718.477V96ZM708.736 97.1669L710.736 85.3487L708.764 85.015L706.764 96.8331L708.736 97.1669ZM709.75 84.1818H709.023V86.1818H709.75V84.1818ZM708.171 84.6577C706.077 88.0601 703.146 90.9706 699.35 93.3833L700.423 95.0712C704.445 92.5143 707.605 89.3944 709.874 85.7059L708.171 84.6577ZM699.355 93.3804C695.627 95.7212 691.226 96.9091 686.114 96.9091V98.9091C691.547 98.9091 696.328 97.6424 700.418 95.0742L699.355 93.3804ZM686.114 96.9091C681.898 96.9091 678.361 95.9882 675.457 94.1947L674.406 95.8963C677.684 97.9209 681.602 98.9091 686.114 98.9091V96.9091ZM675.467 94.2008C672.625 92.4 670.574 89.6907 669.334 85.9997L667.438 86.6366C668.805 90.7032 671.117 93.8121 674.397 95.8901L675.467 94.2008ZM669.337 86.0086C668.132 82.3053 667.964 77.5561 668.919 71.7066L666.945 71.3843C665.961 77.4136 666.096 82.5129 667.435 86.6278L669.337 86.0086ZM668.918 71.7112L676.373 27.3475L674.4 27.0161L666.946 71.3797L668.918 71.7112ZM675.386 28.1818H686.114V26.1818H675.386V28.1818ZM685.127 27.0174L677.855 70.6538L679.827 70.9826L687.1 27.3462L685.127 27.0174ZM677.854 70.6595C677.007 75.927 677.783 80.2982 680.371 83.615L681.948 82.385C679.807 79.6412 679.038 75.8912 679.828 70.9769L677.854 70.6595ZM680.371 83.615C682.955 86.9288 686.679 88.5455 691.386 88.5455V86.5455C687.185 86.5455 684.09 85.1318 681.948 82.385L680.371 83.615ZM691.386 88.5455C694.226 88.5455 697.186 87.8193 700.258 86.4088L699.424 84.5912C696.556 85.908 693.88 86.5455 691.386 86.5455V88.5455ZM700.255 86.4104C703.407 84.9774 706.192 82.7869 708.611 79.865L707.071 78.5895C704.823 81.304 702.275 83.2953 699.427 84.5896L700.255 86.4104ZM708.607 79.8699C711.107 76.8895 712.713 73.123 713.464 68.6189L711.491 68.2901C710.787 72.5134 709.302 75.9287 707.075 78.5847L708.607 79.8699ZM749.67 94.0455L749.071 94.8462L749.075 94.8491L749.67 94.0455ZM741.261 81.5L740.302 81.7839L740.304 81.7903L741.261 81.5ZM740.67 62.2727L739.684 62.1057L739.684 62.111L740.67 62.2727ZM747.625 43.1818L746.781 42.6459L746.779 42.6493L747.625 43.1818ZM760.216 30.6818L759.707 29.8211L759.707 29.8211L760.216 30.6818ZM786.898 28.5455L786.363 29.3904L786.369 29.3944L786.375 29.3982L786.898 28.5455ZM792.17 33.6364L791.302 34.1325L791.306 34.1385L792.17 33.6364ZM794.67 38.2727L793.767 38.7018L794.038 39.2727H794.67V38.2727ZM795.58 38.2727V39.2727H796.427L796.566 38.4371L795.58 38.2727ZM801.307 3.90909V2.90909H800.46L800.32 3.74469L801.307 3.90909ZM812.034 3.90909L813.021 4.07286L813.214 2.90909H812.034V3.90909ZM796.58 97V98H797.427L797.566 97.1638L796.58 97ZM786.216 97L785.23 96.8329L785.032 98H786.216V97ZM788.034 86.2727L789.02 86.4398L789.218 85.2727H788.034V86.2727ZM786.761 86.2727V85.2727H786.275L785.975 85.6549L786.761 86.2727ZM782.58 91.0909L783.309 91.7745L783.315 91.7687L782.58 91.0909ZM775.489 96.2273L775.943 97.118L775.947 97.1161L775.489 96.2273ZM778.58 85.4545L779.131 86.2889L779.133 86.2877L778.58 85.4545ZM787.125 76.0455L787.994 76.5395L787.996 76.5366L787.125 76.0455ZM791.852 62.0909L790.866 61.9246L790.866 61.9265L791.852 62.0909ZM791.761 48.4091L790.789 48.641L790.789 48.6427L791.761 48.4091ZM786.352 39.2273L785.714 39.9969L785.719 40.0012L786.352 39.2273ZM763.989 39.4091L764.557 40.2318L764.562 40.2283L763.989 39.4091ZM755.852 48.8182L756.736 49.287L756.737 49.2842L755.852 48.8182ZM751.489 62.0909L750.502 61.9265L750.502 61.9285L751.489 62.0909ZM751.443 75.6364L750.461 75.8268L750.462 75.8282L751.443 75.6364ZM756.443 85.2727L755.758 86.0012L755.767 86.0095L756.443 85.2727ZM764.398 97.4545C758.723 97.4545 754.033 96.0314 750.266 93.2418L749.075 94.8491C753.247 97.9383 758.376 99.4545 764.398 99.4545V97.4545ZM750.269 93.2447C746.493 90.4198 743.802 86.4288 742.218 81.2097L740.304 81.7903C741.994 87.359 744.908 91.7317 749.071 94.8462L750.269 93.2447ZM742.22 81.2161C740.669 75.9754 740.462 69.7258 741.657 62.4345L739.684 62.111C738.455 69.6075 738.642 76.1761 740.303 81.7839L742.22 81.2161ZM741.656 62.4398C742.88 55.2149 745.158 48.9798 748.471 43.7144L746.779 42.6493C743.304 48.1717 740.945 54.6639 739.685 62.1057L741.656 62.4398ZM748.469 43.7178C751.818 38.4426 755.905 34.3934 760.725 31.5425L759.707 29.8211C754.587 32.8491 750.28 37.1332 746.781 42.6459L748.469 43.7178ZM760.725 31.5425C765.538 28.696 770.786 27.2727 776.489 27.2727V25.2727C770.434 25.2727 764.834 26.7888 759.707 29.8211L760.725 31.5425ZM776.489 27.2727C780.949 27.2727 784.199 28.0206 786.363 29.3904L787.433 27.7005C784.809 26.04 781.119 25.2727 776.489 25.2727V27.2727ZM786.375 29.3982C788.697 30.8202 790.316 32.4061 791.302 34.1325L793.039 33.1402C791.843 31.0484 789.947 29.2404 787.42 27.6927L786.375 29.3982ZM791.306 34.1385C792.39 36.0061 793.208 37.5249 793.767 38.7018L795.574 37.8437C794.981 36.5963 794.133 35.0242 793.035 33.1342L791.306 34.1385ZM794.67 39.2727H795.58V37.2727H794.67V39.2727ZM796.566 38.4371L802.293 4.07349L800.32 3.74469L794.593 38.1083L796.566 38.4371ZM801.307 4.90909H812.034V2.90909H801.307V4.90909ZM811.048 3.74531L795.593 96.8362L797.566 97.1638L813.021 4.07286L811.048 3.74531ZM796.58 96H786.216V98H796.58V96ZM787.202 97.1671L789.02 86.4398L787.048 86.1056L785.23 96.8329L787.202 97.1671ZM788.034 85.2727H786.761V87.2727H788.034V85.2727ZM785.975 85.6549C784.998 86.8983 783.624 88.4827 781.844 90.4131L783.315 91.7687C785.111 89.8204 786.525 88.1927 787.548 86.8905L785.975 85.6549ZM781.85 90.4074C780.158 92.2142 777.894 93.8624 775.03 95.3384L775.947 97.1161C778.962 95.5618 781.426 93.7858 783.309 91.7745L781.85 90.4074ZM775.034 95.3366C772.308 96.7279 768.78 97.4545 764.398 97.4545V99.4545C768.985 99.4545 772.851 98.6964 775.943 97.118L775.034 95.3366ZM767.034 89.8182C771.521 89.8182 775.564 88.6458 779.131 86.2889L778.028 84.6202C774.808 86.7482 771.153 87.8182 767.034 87.8182V89.8182ZM779.133 86.2877C782.702 83.9184 785.654 80.6593 787.994 76.5395L786.256 75.5514C784.051 79.4316 781.305 82.4452 778.027 84.6214L779.133 86.2877ZM787.996 76.5366C790.334 72.3905 791.944 67.6253 792.839 62.2553L790.866 61.9265C790.003 67.102 788.461 71.6398 786.254 75.5543L787.996 76.5366ZM792.838 62.2572C793.733 56.9519 793.713 52.2498 792.734 48.1754L790.789 48.6427C791.689 52.3866 791.729 56.8056 790.866 61.9247L792.838 62.2572ZM792.734 48.1771C791.753 44.0635 789.85 40.797 786.986 38.4533L785.719 40.0012C788.188 42.0212 789.891 44.8759 790.789 48.641L792.734 48.1771ZM786.991 38.4576C784.101 36.0603 780.324 34.9091 775.761 34.9091V36.9091C779.986 36.9091 783.27 37.97 785.714 39.9969L786.991 38.4576ZM775.761 34.9091C771.065 34.9091 766.935 36.1261 763.415 38.5899L764.562 40.2283C767.709 38.0254 771.428 36.9091 775.761 36.9091V34.9091ZM763.42 38.5864C759.94 40.9906 757.125 44.2554 754.968 48.3522L756.737 49.2842C758.761 45.4416 761.37 42.4337 764.557 40.2318L763.42 38.5864ZM754.969 48.3494C752.822 52.3944 751.336 56.9233 750.502 61.9265L752.475 62.2553C753.278 57.4404 754.701 53.1208 756.736 49.287L754.969 48.3494ZM750.502 61.9285C749.669 66.9905 749.647 71.6276 750.461 75.8268L752.425 75.4459C751.664 71.5239 751.672 67.1307 752.475 62.2534L750.502 61.9285ZM750.462 75.8282C751.283 80.0269 753.035 83.4399 755.758 86.0012L757.128 84.5443C754.761 82.3176 753.18 79.3064 752.425 75.4445L750.462 75.8282ZM755.767 86.0095C758.575 88.5862 762.372 89.8182 767.034 89.8182V87.8182C762.726 87.8182 759.463 86.6866 757.119 84.5359L755.767 86.0095ZM817.625 97L816.639 96.8356L816.445 98H817.625V97ZM829.261 27.1818V26.1818H828.414L828.275 27.0174L829.261 27.1818ZM839.989 27.1818L840.975 27.3462L841.169 26.1818H839.989V27.1818ZM828.352 97V98H829.199L829.339 97.1644L828.352 97ZM832.489 13.2273L831.796 13.949L831.804 13.9559L832.489 13.2273ZM832.489 2.95454L831.804 2.22588L831.796 2.23286L832.489 2.95454ZM843.261 2.95454L842.569 3.67626L842.576 3.68317L843.261 2.95454ZM843.261 13.2273L842.576 12.4986L842.569 12.5056L843.261 13.2273ZM818.611 97.1644L830.248 27.3462L828.275 27.0174L816.639 96.8356L818.611 97.1644ZM829.261 28.1818H839.989V26.1818H829.261V28.1818ZM839.002 27.0174L827.366 96.8356L829.339 97.1644L840.975 27.3462L839.002 27.0174ZM828.352 96H817.625V98H828.352V96ZM837.898 14.3636C836.06 14.3636 834.502 13.7475 833.174 12.4986L831.804 13.9559C833.505 15.5555 835.554 16.3636 837.898 16.3636V14.3636ZM833.181 12.5056C831.886 11.2638 831.261 9.80977 831.261 8.0909H829.261C829.261 10.372 830.121 12.3422 831.796 13.949L833.181 12.5056ZM831.261 8.0909C831.261 6.37204 831.886 4.91798 833.181 3.67623L831.796 2.23286C830.121 3.83959 829.261 5.80977 829.261 8.0909H831.261ZM833.174 3.68317C834.502 2.43432 836.06 1.81818 837.898 1.81818V-0.181824C835.554 -0.181824 833.505 0.626282 831.804 2.22592L833.174 3.68317ZM837.898 1.81818C839.735 1.81818 841.274 2.43379 842.569 3.67622L843.954 2.23286C842.279 0.62681 840.242 -0.181824 837.898 -0.181824V1.81818ZM842.576 3.68317C843.9 4.92688 844.534 6.37897 844.534 8.0909H846.534C846.534 5.80284 845.653 3.83069 843.946 2.22592L842.576 3.68317ZM844.534 8.0909C844.534 9.80284 843.9 11.2549 842.576 12.4986L843.946 13.9559C845.653 12.3511 846.534 10.379 846.534 8.0909H844.534ZM842.569 12.5056C841.274 13.748 839.735 14.3636 837.898 14.3636V16.3636C840.242 16.3636 842.279 15.555 843.954 13.949L842.569 12.5056ZM851.5 81L850.547 81.3036L850.549 81.3084L851.5 81ZM850.636 61.7273L851.624 61.8864L851.624 61.8862L850.636 61.7273ZM857.5 43.0455L856.661 42.5018L856.66 42.503L857.5 43.0455ZM870.364 30.6818L870.858 31.5513L870.859 31.5504L870.364 30.6818ZM903.455 30.9091L902.871 31.7213L902.878 31.7259L903.455 30.9091ZM912.636 43.8182L911.685 44.125L911.685 44.1266L912.636 43.8182ZM913.545 63.1818L914.533 63.3421L914.533 63.3396L913.545 63.1818ZM906.591 81.7727L905.755 81.2235L905.754 81.2247L906.591 81.7727ZM893.727 94.0909L894.223 94.9592L894.225 94.9582L893.727 94.0909ZM889.773 85.0455L889.204 84.223L889.201 84.2253L889.773 85.0455ZM898.591 75.0909L897.715 74.608L897.713 74.613L898.591 75.0909ZM903.182 61.7273L904.169 61.8896L904.169 61.8853L903.182 61.7273ZM903.091 49.0455L902.11 49.2416L902.111 49.243L903.091 49.0455ZM898.045 39.5455L897.36 40.2737L897.365 40.2779L898.045 39.5455ZM874.318 39.7273L873.748 38.9058L873.745 38.908L874.318 39.7273ZM865.5 49.7727L864.62 49.2975L864.62 49.2975L865.5 49.7727ZM861 63.1818L861.987 63.3398L861.988 63.3381L861 63.1818ZM861.045 75.8636L860.064 76.0539L860.065 76.0627L861.045 75.8636ZM866.091 85.2727L865.41 86.0053L865.419 86.0134L866.091 85.2727ZM876.818 97.4545C870.556 97.4545 865.39 95.965 861.259 93.0468L860.105 94.6804C864.64 97.8835 870.232 99.4545 876.818 99.4545V97.4545ZM861.259 93.0468C857.118 90.1225 854.179 86.0215 852.451 80.6916L850.549 81.3084C852.397 87.0088 855.579 91.4835 860.105 94.6804L861.259 93.0468ZM852.453 80.6964C850.754 75.3669 850.46 69.1074 851.624 61.8864L849.649 61.5682C848.449 69.0138 848.73 75.6028 850.547 81.3036L852.453 80.6964ZM851.624 61.8862C852.756 54.8513 855.001 48.7587 858.34 43.5879L856.66 42.503C853.15 47.9382 850.819 54.3002 849.649 61.5683L851.624 61.8862ZM858.339 43.5891C861.714 38.3797 865.887 34.3749 870.858 31.5513L869.87 29.8123C864.598 32.8069 860.195 37.0446 856.661 42.5018L858.339 43.5891ZM870.859 31.5504C875.853 28.7008 881.348 27.2727 887.364 27.2727V25.2727C881.016 25.2727 875.177 26.784 869.868 29.8133L870.859 31.5504ZM887.364 27.2727C893.624 27.2727 898.772 28.7765 902.871 31.7213L904.038 30.0969C899.531 26.8598 893.952 25.2727 887.364 25.2727V27.2727ZM902.878 31.7259C907.017 34.6492 909.956 38.7643 911.685 44.125L913.588 43.5113C911.741 37.7812 908.559 33.2902 904.031 30.0923L902.878 31.7259ZM911.685 44.1266C913.412 49.454 913.722 55.7421 912.558 63.024L914.533 63.3396C915.733 55.8337 915.436 49.2127 913.588 43.5098L911.685 44.1266ZM912.558 63.0215C911.426 69.9919 909.153 76.0527 905.755 81.2235L907.427 82.3219C910.998 76.8867 913.361 70.5535 914.533 63.3421L912.558 63.0215ZM905.754 81.2247C902.38 86.375 898.205 90.3678 893.229 93.2236L894.225 94.9582C899.492 91.9353 903.893 87.7159 907.427 82.3208L905.754 81.2247ZM893.231 93.2227C888.3 96.0407 882.836 97.4545 876.818 97.4545V99.4545C883.164 99.4545 888.973 97.9593 894.223 94.9592L893.231 93.2227ZM877 89.8182C882.089 89.8182 886.552 88.5113 890.345 85.8657L889.201 84.2253C885.782 86.6099 881.729 87.8182 877 87.8182V89.8182ZM890.342 85.8679C894.115 83.2583 897.157 79.8189 899.469 75.5689L897.713 74.613C895.54 78.6053 892.704 81.8023 889.204 84.223L890.342 85.8679ZM899.467 75.5738C901.796 71.3498 903.363 66.7864 904.169 61.8896L902.195 61.5649C901.425 66.2439 899.931 70.5896 897.715 74.608L899.467 75.5738ZM904.169 61.8853C904.913 57.2398 904.886 52.8907 904.071 48.8479L902.111 49.243C902.872 53.0184 902.906 57.1239 902.194 61.5693L904.169 61.8853ZM904.071 48.8493C903.249 44.7346 901.477 41.3696 898.726 38.813L897.365 40.2779C899.765 42.5092 901.358 45.4775 902.11 49.2416L904.071 48.8493ZM898.731 38.8173C895.917 36.1685 892.02 34.9091 887.182 34.9091V36.9091C891.677 36.9091 895.023 38.0739 897.36 40.2737L898.731 38.8173ZM887.182 34.9091C882.09 34.9091 877.599 36.2325 873.748 38.9058L874.888 40.5487C878.371 38.1311 882.455 36.9091 887.182 36.9091V34.9091ZM873.745 38.908C869.973 41.5483 866.932 45.0179 864.62 49.2975L866.38 50.248C868.553 46.2246 871.391 42.9971 874.892 40.5465L873.745 38.908ZM864.62 49.2975C862.323 53.5512 860.787 58.1291 860.012 63.0255L861.988 63.3381C862.728 58.6588 864.193 54.2973 866.38 50.248L864.62 49.2975ZM860.013 63.0238C859.27 67.6671 859.281 72.0135 860.064 76.0539L862.027 75.6734C861.295 71.8955 861.276 67.7875 861.987 63.3398L860.013 63.0238ZM860.065 76.0627C860.889 80.1194 862.662 83.4515 865.41 86.0052L866.772 84.5402C864.368 82.3061 862.777 79.3655 862.025 75.6646L860.065 76.0627ZM865.419 86.0134C868.262 88.5922 872.168 89.8182 877 89.8182V87.8182C872.499 87.8182 869.132 86.6805 866.763 84.532L865.419 86.0134Z" fill="black" mask="url(#path-1-outside-1_1_2)"/>
</svg>
